<svg width="64" height="64" viewBox="0 0 64 64" fill="none" xmlns="http://www.w3.org/2000/svg">
<g clip-path="url(#clip0_5472_5021)">
<path d="M32.2637 27.8895C34.4572 27.861 37.3696 28.302 39.484 28.9466C42.2343 29.8908 45.0542 31.234 47.1999 33.2236C49.1815 35.0612 49.9837 36.0084 47.8364 38.1409C44.9527 41.0038 41.2515 42.3149 37.3441 43.0885C35.541 43.4455 33.519 43.4731 31.7011 43.4694C28.8847 43.4598 26.255 43.1607 23.5571 42.3521C20.396 41.4044 16.0079 39.2554 14.7847 36.0121C14.9893 34.9597 15.791 34.0847 16.5754 33.3468C18.7409 31.3096 21.5934 29.8751 24.4019 28.9561C25.2431 28.6628 26.1834 28.5756 27.0302 28.3589C28.8301 27.8982 30.4266 27.8883 32.2637 27.8895Z" fill="white"/>
<path d="M55.7341 14C59.0087 14.2947 62.48 16.9708 63.4707 20.0979C63.6647 20.7102 64.0078 22.1162 63.9999 22.7561C63.9282 28.57 58.6687 32.5195 53.3264 33.343C51.3135 33.6532 50.7658 33.8641 48.9967 32.936C48.773 32.7724 48.5876 32.6423 48.4787 32.3888C48.5196 32.1296 48.9175 31.9516 49.1704 31.8204C50.1734 31.2984 50.8104 30.2581 51.5791 29.6047C51.0734 29.0772 50.8157 28.5693 50.4597 27.9394C48.6869 24.7992 48.883 19.9541 51.603 17.3536C52.139 18.9964 53.7907 22.1963 55.2676 23.1143C55.6395 23.0076 55.8902 21.8606 55.9577 21.5079C56.4289 19.0411 56.2441 16.4454 55.7341 14Z" fill="white"/>
<path d="M8.04829 14.0149C8.11183 14.0125 8.13027 14.0274 8.19572 14.0481C8.19912 14.0677 7.99225 15.3744 7.95155 15.5424C7.63801 16.8365 7.66584 22.5361 8.69218 23.1033C8.91775 22.9781 9.21254 22.6569 9.39211 22.4616C10.7884 20.9431 11.6462 19.2691 12.371 17.3752C12.8884 17.973 13.453 18.7424 13.8015 19.4507C15.3744 22.6467 14.7093 27.055 12.2824 29.6449C12.9055 30.1555 13.4341 30.9886 14.1493 31.4988C14.4834 31.7369 15.2917 32.1184 15.3904 32.3521C15.3463 32.5418 15.2419 32.6268 15.1112 32.7745C13.3726 33.9209 12.6114 33.6292 10.7022 33.3572C6.63032 32.7771 2.31206 30.1794 0.687424 26.2693C-1.63257 20.6858 2.19433 14.8337 8.04829 14.0149Z" fill="white"/>
<path d="M39.7848 19.5049C41.6744 19.2434 43.4209 20.5575 43.693 22.4453C43.965 24.3332 42.6605 26.0866 40.774 26.3691C38.8727 26.6538 37.1029 25.3374 36.8287 23.4346C36.5546 21.5318 37.8805 19.7686 39.7848 19.5049Z" fill="white"/>
<path d="M23.1605 19.5181C25.0545 19.2092 26.8386 20.4981 27.141 22.3931C27.4433 24.2879 26.1491 26.0677 24.2533 26.3638C22.3667 26.6581 20.5964 25.3714 20.2953 23.4858C19.9943 21.6001 21.2758 19.8256 23.1605 19.5181Z" fill="white"/>
<path d="M48.0622 40.1924C49.6878 40.3332 51.1738 40.6912 52.3632 41.8568C53.7785 43.2434 54.076 45.4098 52.5996 46.8745C52.3367 47.1359 52.0344 47.3808 51.7815 46.9659C51.6556 46.7529 51.3315 46.3534 51.1674 46.1217C49.8727 44.299 47.9145 42.489 45.7225 41.8632C46.3861 41.5731 46.8339 41.2012 47.3939 40.7438C47.6563 40.5297 47.7551 40.3751 48.0622 40.1924Z" fill="white"/>
<path d="M15.1128 40.2623C15.4052 40.2277 15.6771 40.24 15.9702 40.2453C16.1294 40.3558 16.456 40.675 16.6365 40.8254C17.2014 41.2956 17.6013 41.5261 18.2519 41.8523C16.1208 42.5084 14.3964 43.9603 13.0689 45.7215C12.8939 45.9541 12.7848 46.156 12.5893 46.3829L12.55 46.428C12.3672 46.5975 12.2655 46.9609 12.0001 47.1479C11.7939 47.1569 11.5911 47.1208 11.4423 46.9736C9.36294 44.9224 10.6561 41.8975 13.0726 40.8408C13.9066 40.4764 14.2022 40.368 15.1128 40.2623Z" fill="white"/>
<path d="M19.9744 42.7456C20.0845 42.7828 20.0408 42.761 20.1313 42.8147C20.8572 43.2439 21.7134 43.5266 22.5159 43.7762C22.3455 44.0026 21.8975 44.4408 21.6583 44.7298C20.4725 46.1605 19.9379 47.2108 19.2503 48.8859C19.2304 48.9241 19.1637 48.9969 19.1328 49.0336C18.984 49.0973 18.9095 49.1127 18.7526 49.0612C17.1409 48.5305 16.8176 46.4336 17.3593 45.0428C17.8467 43.7916 18.8187 43.2535 19.9744 42.7456Z" fill="white"/>
<path d="M43.8307 42.7852C44.1999 42.731 45.1105 43.3234 45.4367 43.5763C46.8684 44.6845 47.346 46.8366 46.1693 48.306C45.9679 48.5573 45.4059 49.0843 45.0483 49.0886C44.8996 49.0902 44.839 49.0312 44.7429 48.9329C44.5681 48.5887 44.4369 48.144 44.2488 47.7764C43.42 46.1555 42.7321 44.999 41.3768 43.7967C42.2332 43.5332 43.0758 43.2724 43.8307 42.7852Z" fill="white"/>
</g>
<defs>
<clipPath id="clip0_5472_5021">
<rect width="64" height="64" fill="white"/>
</clipPath>
</defs>
</svg>
