<svg width="287" height="69" viewBox="0 0 287 69" fill="none" xmlns="http://www.w3.org/2000/svg">
<path d="M12.144 8.536C11.5573 8.536 11.0293 8.82933 10.56 9.416V45.76C10.56 48.224 10.7067 50.2187 11 51.744C11.2933 53.2107 11.9387 54.6773 12.936 56.144C14.872 58.96 19.3013 60.368 26.224 60.368V62.92C25.9307 62.92 23.76 63.7413 19.712 65.384C15.664 66.968 13.2 67.76 12.32 67.76C9.38667 67.76 6.6 66.088 3.96 62.744C1.32 59.3413 0 55.7627 0 52.008V8.096C0 7.68533 3.344 6.248 10.032 3.784C16.7787 1.26133 20.6507 0 21.648 0C22 0 22.4107 0.850666 22.88 2.552C23.3493 4.25333 23.8773 6.30667 24.464 8.712C25.1093 11.1173 25.7547 12.9067 26.4 14.08C27.104 15.1947 28.3947 15.752 30.272 15.752V17.512C28.9813 18.0987 26.7813 19.1547 23.672 20.68C20.6213 22.1467 18.9787 22.88 18.744 22.88C17.864 22.88 16.7493 20.504 15.4 15.752C14.0507 10.9413 12.9653 8.536 12.144 8.536Z" fill="url(#paint0_linear_5442_4922)"/>
<path d="M46.1381 6.072V54.736C46.1381 58.3147 47.3408 60.3387 49.7461 60.808V62.744L40.8581 67.76C39.5675 67.232 38.3648 66.3813 37.2501 65.208C36.1355 63.976 35.5781 62.832 35.5781 61.776V13.112C35.5781 9.53333 34.3755 7.50933 31.9701 7.04V5.104L40.8581 0.0879989C42.1488 0.615999 43.3515 1.496 44.4661 2.728C45.5808 3.90133 46.1381 5.016 46.1381 6.072Z" fill="url(#paint1_linear_5442_4922)"/>
<path d="M82.1941 29.216V54.12C82.1941 56.2907 82.5461 57.816 83.2501 58.696C83.9541 59.5173 85.0394 60.104 86.5061 60.456V62.392L76.9141 67.76C75.6234 67.232 74.4207 66.3813 73.3061 65.208C72.1914 63.976 71.6341 62.8613 71.6341 61.864L60.6341 67.76C60.4581 67.6427 60.1941 67.496 59.8421 67.32C59.4901 67.0853 58.8741 66.6453 57.9941 66C57.1727 65.296 56.4394 64.5627 55.7941 63.8C54.0341 61.864 53.1541 59.664 53.1541 57.2V42.768C53.1541 41.8293 54.6794 40.6267 57.7301 39.16C60.7807 37.6933 63.8314 36.4907 66.8821 35.552L71.5461 34.056C71.5461 30.712 70.6661 28.3947 68.9061 27.104C67.1461 25.7547 63.7434 25.08 58.6981 25.08V22.44C67.7914 19.2133 72.8954 17.6 74.0101 17.6C75.9461 17.6 77.7941 18.8613 79.5541 21.384C81.3141 23.9067 82.1941 26.5173 82.1941 29.216ZM63.7141 54.032C63.7141 55.5573 64.1541 56.8187 65.0341 57.816C65.9727 58.7547 66.9994 59.224 68.1141 59.224C69.2287 59.224 70.4021 58.784 71.6341 57.904V38.016C70.1674 38.544 69.0527 38.984 68.2901 39.336C67.5861 39.688 66.8234 40.2453 66.0021 41.008C64.4767 42.416 63.7141 44.8507 63.7141 48.312V54.032Z" fill="url(#paint2_linear_5442_4922)"/>
<path d="M109.488 30.536C109.488 27.3093 108.05 25.4027 105.176 24.816V22.88C111.512 19.36 114.709 17.6 114.768 17.6C115.296 17.6 116.234 18.1867 117.584 19.36C118.933 20.4747 119.754 21.6773 120.048 22.968C120.165 22.8507 121.954 21.9413 125.416 20.24C128.877 18.48 130.637 17.6 130.696 17.6C131.869 17.6 133.16 18.304 134.568 19.712C137.266 22.4107 138.616 26.0187 138.616 30.536V59.576C138.616 60.104 135.477 61.6 129.2 64.064C122.922 66.528 119.021 67.76 117.496 67.76C114.738 67.76 112.45 65.9413 110.632 62.304C104.178 65.9413 100.101 67.76 98.3998 67.76C96.6985 67.76 95.0265 66.528 93.3838 64.064C91.7998 61.5413 91.0078 59.224 91.0078 57.112V30.536C91.0078 27.3093 89.5705 25.4027 86.6958 24.816V22.88L96.2878 17.512C97.5785 18.04 98.7811 18.92 99.8958 20.152C101.01 21.3253 101.568 22.4107 101.568 23.408V50.6C101.568 56.1733 103.298 58.96 106.76 58.96C107.64 58.96 108.549 58.784 109.488 58.432V30.536ZM120.136 51.48C120.136 53.3573 120.488 55.1173 121.192 56.76C121.954 58.344 122.981 59.136 124.272 59.136C125.562 59.136 126.794 58.872 127.968 58.344V33.704C127.968 30.6533 127.352 28.6293 126.12 27.632C124.888 26.576 122.893 26.0187 120.136 25.96V51.48Z" fill="url(#paint3_linear_5442_4922)"/>
<path d="M147.383 61.776V31.944C147.383 30.008 146.972 28.336 146.151 26.928C145.329 25.52 144.303 24.816 143.071 24.816V22.88C143.481 22.8213 146.679 21.032 152.663 17.512C153.073 17.6293 153.572 17.8053 154.159 18.04C154.745 18.216 155.508 18.7733 156.447 19.712C157.444 20.6507 157.943 21.736 157.943 22.968C158.295 22.792 159.292 22.2347 160.935 21.296C165.276 18.832 167.857 17.6 168.679 17.6C170.556 17.6 172.316 18.832 173.959 21.296C175.601 23.76 176.423 26.0187 176.423 28.072V54.736C176.423 57.9627 177.86 59.8693 180.735 60.456V62.392L171.143 67.76C169.852 67.232 168.649 66.3813 167.535 65.208C166.42 63.976 165.863 62.832 165.863 61.776V36.256C165.863 32.9707 165.481 30.4773 164.719 28.776C164.015 27.016 162.724 26.136 160.847 26.136L157.943 26.664V54.736C157.943 58.3147 159.145 60.3387 161.551 60.808V62.744L152.663 67.76C151.372 67.232 150.169 66.3813 149.055 65.208C147.94 63.976 147.383 62.832 147.383 61.776Z" fill="url(#paint4_linear_5442_4922)"/>
<path d="M212.475 29.216V54.12C212.475 56.2907 212.827 57.816 213.531 58.696C214.235 59.5173 215.321 60.104 216.787 60.456V62.392L207.195 67.76C205.905 67.232 204.702 66.3813 203.587 65.208C202.473 63.976 201.915 62.8613 201.915 61.864L190.915 67.76C190.739 67.6427 190.475 67.496 190.123 67.32C189.771 67.0853 189.155 66.6453 188.275 66C187.454 65.296 186.721 64.5627 186.075 63.8C184.315 61.864 183.435 59.664 183.435 57.2V42.768C183.435 41.8293 184.961 40.6267 188.011 39.16C191.062 37.6933 194.113 36.4907 197.163 35.552L201.827 34.056C201.827 30.712 200.947 28.3947 199.187 27.104C197.427 25.7547 194.025 25.08 188.979 25.08V22.44C198.073 19.2133 203.177 17.6 204.291 17.6C206.227 17.6 208.075 18.8613 209.835 21.384C211.595 23.9067 212.475 26.5173 212.475 29.216ZM193.995 54.032C193.995 55.5573 194.435 56.8187 195.315 57.816C196.254 58.7547 197.281 59.224 198.395 59.224C199.51 59.224 200.683 58.784 201.915 57.904V38.016C200.449 38.544 199.334 38.984 198.571 39.336C197.867 39.688 197.105 40.2453 196.283 41.008C194.758 42.416 193.995 44.8507 193.995 48.312V54.032Z" fill="url(#paint5_linear_5442_4922)"/>
<path d="M237.833 0C239.417 0 241.91 3.84267 245.313 11.528C248.716 19.2133 250.417 24.5227 250.417 27.456V54.296C250.417 55.6453 250.769 56.9653 251.473 58.256C252.236 59.5467 253.292 60.28 254.641 60.456V62.392C254.23 62.4507 251.033 64.24 245.049 67.76C243.7 67.1733 242.468 66.3227 241.353 65.208C240.297 64.0347 239.769 62.9493 239.769 61.952C233.492 65.824 229.825 67.76 228.769 67.76C228.358 67.76 227.566 67.32 226.393 66.44C225.278 65.5013 224.134 64.1813 222.961 62.48C221.846 60.72 221.289 58.9307 221.289 57.112V25.696C221.289 25.1093 226.246 23.0853 236.161 19.624C234.049 14.9893 232.348 11.7333 231.057 9.856C229.766 7.97867 228.505 7.04 227.273 7.04H224.369V4.4C230.881 1.46667 235.369 0 237.833 0ZM236.337 59.664C237.452 59.664 238.596 59.1947 239.769 58.256V27.632C239.769 27.28 239.505 26.5467 238.977 25.432C238.508 24.2587 238.156 23.672 237.921 23.672C236.22 23.672 234.489 24.2 232.729 25.256L231.849 25.784V53.152C231.849 57.4933 233.345 59.664 236.337 59.664Z" fill="url(#paint6_linear_5442_4922)"/>
<path d="M263.15 48.488C261.683 48.488 260.422 47.3733 259.366 45.144C258.31 42.9147 257.782 40.1867 257.782 36.96V27.456C257.782 26.3413 260.862 24.4347 267.022 21.736C273.182 18.9787 276.731 17.6 277.67 17.6C278.198 17.6 278.667 17.9227 279.078 18.568C279.488 19.1547 279.811 19.6533 280.046 20.064C280.28 20.416 280.632 21.0613 281.102 22C281.63 22.88 282.07 23.6133 282.422 24.2C283.184 25.608 284.152 26.312 285.326 26.312V28.072C284.387 28.4827 283.155 29.0987 281.63 29.92C277.875 31.9733 275.851 33 275.558 33C274.678 33 273.71 31.5627 272.654 28.688C271.656 25.8133 270.747 24.376 269.926 24.376C268.87 24.376 268.342 25.256 268.342 27.016V37.84C268.342 40.1867 268.87 41.36 269.926 41.36C270.16 41.36 271.979 40.5973 275.382 39.072C278.784 37.5467 280.838 36.784 281.542 36.784C282.95 36.784 284.182 37.928 285.238 40.216C286.352 42.4453 286.91 45.32 286.91 48.84V58.784C286.91 59.8987 283.536 61.8347 276.79 64.592C270.102 67.2907 266.259 68.64 265.262 68.64C264.851 68.64 264.44 68.288 264.03 67.584C263.678 66.8213 263.15 65.6773 262.446 64.152C261.8 62.6267 261.155 61.336 260.51 60.28C259.747 58.872 258.779 58.168 257.606 58.168V56.408C258.544 55.9973 259.806 55.3813 261.39 54.56C265.086 52.5067 267.08 51.48 267.374 51.48C268.254 51.48 269.339 53.2107 270.63 56.672C271.979 60.1333 273.064 61.864 273.886 61.864C274.472 61.864 275.03 61.6293 275.558 61.16C276.086 60.6907 276.35 60.0453 276.35 59.224V48.224C276.35 45.584 275.616 44.264 274.15 44.264C273.68 44.264 271.832 44.968 268.606 46.376C265.379 47.784 263.56 48.488 263.15 48.488Z" fill="url(#paint7_linear_5442_4922)"/>
<defs>
<linearGradient id="paint0_linear_5442_4922" x1="62.568" y1="151.98" x2="252.442" y2="-31.4001" gradientUnits="userSpaceOnUse">
<stop stop-color="#8752F3"/>
<stop offset="0.498283" stop-color="#C596FE"/>
<stop offset="1" stop-color="#7553BC"/>
</linearGradient>
<linearGradient id="paint1_linear_5442_4922" x1="62.568" y1="151.98" x2="252.442" y2="-31.4001" gradientUnits="userSpaceOnUse">
<stop stop-color="#8752F3"/>
<stop offset="0.498283" stop-color="#C596FE"/>
<stop offset="1" stop-color="#7553BC"/>
</linearGradient>
<linearGradient id="paint2_linear_5442_4922" x1="62.568" y1="151.98" x2="252.442" y2="-31.4001" gradientUnits="userSpaceOnUse">
<stop stop-color="#8752F3"/>
<stop offset="0.498283" stop-color="#C596FE"/>
<stop offset="1" stop-color="#7553BC"/>
</linearGradient>
<linearGradient id="paint3_linear_5442_4922" x1="62.568" y1="151.98" x2="252.442" y2="-31.4001" gradientUnits="userSpaceOnUse">
<stop stop-color="#8752F3"/>
<stop offset="0.498283" stop-color="#C596FE"/>
<stop offset="1" stop-color="#7553BC"/>
</linearGradient>
<linearGradient id="paint4_linear_5442_4922" x1="62.568" y1="151.98" x2="252.442" y2="-31.4001" gradientUnits="userSpaceOnUse">
<stop stop-color="#8752F3"/>
<stop offset="0.498283" stop-color="#C596FE"/>
<stop offset="1" stop-color="#7553BC"/>
</linearGradient>
<linearGradient id="paint5_linear_5442_4922" x1="62.568" y1="151.98" x2="252.442" y2="-31.4001" gradientUnits="userSpaceOnUse">
<stop stop-color="#8752F3"/>
<stop offset="0.498283" stop-color="#C596FE"/>
<stop offset="1" stop-color="#7553BC"/>
</linearGradient>
<linearGradient id="paint6_linear_5442_4922" x1="62.568" y1="151.98" x2="252.442" y2="-31.4001" gradientUnits="userSpaceOnUse">
<stop stop-color="#8752F3"/>
<stop offset="0.498283" stop-color="#C596FE"/>
<stop offset="1" stop-color="#7553BC"/>
</linearGradient>
<linearGradient id="paint7_linear_5442_4922" x1="62.568" y1="151.98" x2="252.442" y2="-31.4001" gradientUnits="userSpaceOnUse">
<stop stop-color="#8752F3"/>
<stop offset="0.498283" stop-color="#C596FE"/>
<stop offset="1" stop-color="#7553BC"/>
</linearGradient>
</defs>
</svg>
