<svg width="417" height="64" viewBox="0 0 417 64" fill="none" xmlns="http://www.w3.org/2000/svg">
<g clip-path="url(#clip0_5472_5037)">
<path d="M36.4286 52.4248C36.6293 52.4926 36.5498 52.4531 36.7147 52.5508C38.0384 53.3336 39.6007 53.8493 41.0643 54.3047C40.7535 54.7174 39.9361 55.5169 39.4999 56.0439C37.3373 58.653 36.3622 60.5684 35.1083 63.623C35.0719 63.6928 34.9497 63.8257 34.8934 63.8926C34.6222 64.0088 34.486 64.0373 34.2001 63.9434C31.2608 62.9753 30.6713 59.1508 31.659 56.6143C32.548 54.3326 34.3209 53.3511 36.4286 52.4248Z" fill="white"/>
<path d="M79.9374 52.498C80.6107 52.3992 82.271 53.4792 82.8661 53.9404C85.4772 55.9615 86.3481 59.8864 84.202 62.5664C83.8346 63.0248 82.81 63.9854 82.1581 63.9932C81.887 63.9961 81.7766 63.889 81.6014 63.71C81.2827 63.0822 81.043 62.271 80.7001 61.6006C79.1886 58.6445 77.9334 56.5354 75.4618 54.3428C77.0235 53.8622 78.5606 53.3864 79.9374 52.498Z" fill="white"/>
<path d="M87.6551 47.7686C90.6198 48.0253 93.3296 48.679 95.4989 50.8047C98.0798 53.3335 98.622 57.2839 95.9295 59.9551C95.45 60.4317 94.8995 60.8786 94.4383 60.1221C94.2088 59.7337 93.6177 59.0055 93.3182 58.583C90.957 55.2587 87.3852 51.9568 83.3876 50.8154C84.5976 50.2865 85.4143 49.6085 86.4354 48.7744C86.914 48.3839 87.0951 48.1019 87.6551 47.7686Z" fill="white"/>
<path d="M29.1258 47.8652C29.4162 48.0668 30.0114 48.6486 30.3407 48.9229C31.3709 49.7803 32.1006 50.201 33.287 50.7959C29.4005 51.9925 26.2559 54.6407 23.8348 57.8525C23.5156 58.2769 23.3162 58.6449 22.9598 59.0586L22.8885 59.1406C22.5552 59.4497 22.3694 60.113 21.8856 60.4541C21.5096 60.4706 21.1395 60.4041 20.868 60.1357C17.0759 56.3948 19.4344 50.8783 23.8417 48.9512C25.3624 48.2866 25.9017 48.0893 27.5624 47.8965C28.0955 47.8335 28.5914 47.8555 29.1258 47.8652Z" fill="white"/>
<path d="M145.347 25.3164C148.395 25.3164 151.014 25.8534 153.204 26.9268C155.393 28.0001 157.153 29.4812 158.484 31.3701C159.858 33.2161 160.76 35.3196 161.189 37.6807L153.332 39.3555C153.16 38.0675 152.774 36.9083 152.173 35.8779C151.572 34.8477 150.714 34.0317 149.598 33.4307C148.524 32.8296 147.171 32.5293 145.54 32.5293C143.909 32.5293 142.427 32.8942 141.097 33.624C139.809 34.3109 138.778 35.3627 138.006 36.7793C137.276 38.1531 136.911 39.8494 136.911 41.8672V42.5107C136.911 44.5286 137.276 46.2463 138.006 47.6631C138.778 49.0368 139.809 50.0886 141.097 50.8184C142.427 51.5052 143.909 51.8486 145.54 51.8486C147.987 51.8486 149.833 51.2263 151.078 49.9814C152.366 48.6935 153.182 47.0188 153.525 44.958L161.382 46.8262C160.824 49.1013 159.858 51.1834 158.484 53.0723C157.153 54.9182 155.393 56.3779 153.204 57.4512C151.014 58.5245 148.395 59.0615 145.347 59.0615C142.256 59.0615 139.444 58.4177 136.911 57.1299C134.421 55.8419 132.446 53.9735 130.986 51.5264C129.527 49.0793 128.797 46.117 128.797 42.6396V41.7383C128.797 38.2608 129.527 35.2987 130.986 32.8516C132.446 30.4044 134.421 28.537 136.911 27.249C139.444 25.9611 142.256 25.3165 145.347 25.3164Z" fill="white"/>
<path fill-rule="evenodd" clip-rule="evenodd" d="M198.447 25.3164C202.654 25.3164 205.982 26.369 208.43 28.4727C210.876 30.5763 212.1 33.6247 212.1 37.6172V49.5303C212.1 50.8182 212.701 51.4629 213.903 51.4629H216.479V58.1602H211.069C209.481 58.1601 208.172 57.7736 207.141 57.001C206.111 56.2282 205.596 55.1971 205.596 53.9092V53.8447H204.372C204.2 54.3599 203.814 55.0476 203.213 55.9062C202.612 56.7218 201.667 57.4518 200.38 58.0957C199.092 58.7397 197.331 59.0615 195.098 59.0615C192.823 59.0615 190.784 58.675 188.981 57.9023C187.178 57.0866 185.739 55.9274 184.666 54.4248C183.636 52.8793 183.121 51.0117 183.121 48.8223C183.121 46.6329 183.636 44.8083 184.666 43.3486C185.739 41.846 187.2 40.7289 189.046 39.999C190.935 39.2264 193.081 38.8398 195.485 38.8398H204.243V37.0371C204.243 35.5346 203.771 34.3107 202.827 33.3662C201.883 32.3788 200.379 31.8857 198.318 31.8857C196.301 31.8858 194.798 32.3573 193.81 33.3018C192.823 34.2033 192.179 35.3842 191.879 36.8438L184.409 34.332C184.924 32.7008 185.739 31.2194 186.855 29.8887C188.014 28.5149 189.539 27.4202 191.428 26.6045C193.359 25.7459 195.7 25.3164 198.447 25.3164ZM196.064 44.8936C194.562 44.8936 193.382 45.2157 192.523 45.8594C191.665 46.5034 191.235 47.4053 191.235 48.5645C191.235 49.7236 191.685 50.6686 192.587 51.3984C193.488 52.1283 194.798 52.4932 196.515 52.4932C198.791 52.4932 200.637 51.87 202.054 50.625C203.513 49.3371 204.243 47.6416 204.243 45.5381V44.8936H196.064Z" fill="white"/>
<path fill-rule="evenodd" clip-rule="evenodd" d="M325.735 25.3164C329.943 25.3164 333.27 26.369 335.717 28.4727C338.164 30.5763 339.388 33.6246 339.388 37.6172V49.5303C339.388 50.8181 339.988 51.4627 341.19 51.4629H343.766V58.1602H338.357C336.769 58.1602 335.459 57.7738 334.429 57.001C333.398 56.2282 332.884 55.1971 332.884 53.9092V53.8447H331.66C331.488 54.3599 331.102 55.0476 330.501 55.9062C329.9 56.7219 328.955 57.4517 327.667 58.0957C326.379 58.7396 324.619 59.0615 322.387 59.0615C320.111 59.0615 318.072 58.6751 316.268 57.9023C314.465 57.0867 313.027 55.9274 311.954 54.4248C310.924 52.8793 310.408 51.0117 310.408 48.8223C310.408 46.6328 310.924 44.8083 311.954 43.3486C313.027 41.846 314.487 40.7289 316.333 39.999C318.222 39.2263 320.368 38.8399 322.772 38.8398H331.531V37.0371C331.531 35.5345 331.059 34.3107 330.114 33.3662C329.17 32.3789 327.667 31.8857 325.606 31.8857C323.589 31.8857 322.086 32.3574 321.098 33.3018C320.111 34.2033 319.467 35.3842 319.167 36.8438L311.696 34.332C312.211 32.7007 313.027 31.2195 314.143 29.8887C315.303 28.5149 316.827 27.4202 318.716 26.6045C320.648 25.7459 322.988 25.3164 325.735 25.3164ZM323.352 44.8936C321.85 44.8936 320.669 45.2155 319.81 45.8594C318.952 46.5034 318.522 47.4053 318.522 48.5645C318.522 49.7236 318.973 50.6686 319.875 51.3984C320.776 52.1282 322.086 52.4932 323.804 52.4932C326.079 52.4931 327.925 51.87 329.342 50.625C330.801 49.3371 331.531 47.6415 331.531 45.5381V44.8936H323.352Z" fill="white"/>
<path fill-rule="evenodd" clip-rule="evenodd" d="M381.14 58.1602H373.155V54.2959H371.996C371.266 55.498 370.128 56.5927 368.583 57.5801C367.08 58.5675 364.869 59.0615 361.95 59.0615C359.417 59.0615 357.034 58.4394 354.802 57.1943C352.612 55.9064 350.852 54.038 349.521 51.5908C348.191 49.1437 347.525 46.1815 347.525 42.7041V41.6738C347.525 38.1964 348.19 35.2342 349.521 32.7871C350.852 30.3401 352.612 28.4941 354.802 27.249C356.991 25.9611 359.374 25.3164 361.95 25.3164C363.882 25.3164 365.492 25.5531 366.78 26.0254C368.111 26.4547 369.184 27.0124 370 27.6992C370.815 28.386 371.438 29.116 371.867 29.8887H373.026V13.0811H381.14V58.1602ZM364.397 32.4004C361.907 32.4004 359.825 33.2162 358.15 34.8477C356.476 36.4361 355.639 38.7762 355.639 41.8672V42.5107C355.639 45.6017 356.476 47.9633 358.15 49.5947C359.825 51.1832 361.907 51.9775 364.397 51.9775C366.887 51.9775 368.97 51.1832 370.644 49.5947C372.319 47.9633 373.155 45.6017 373.155 42.5107V41.8672C373.155 38.7762 372.319 36.4361 370.644 34.8477C369.013 33.2162 366.93 32.4004 364.397 32.4004Z" fill="white"/>
<path d="M402.115 25.3164C405.678 25.3164 408.641 26.1109 411.002 27.6992C413.363 29.2877 414.909 31.3704 415.639 33.9463L408.104 36.2646C407.761 34.6334 407.052 33.4741 405.979 32.7871C404.949 32.1002 403.661 31.7568 402.115 31.7568C400.57 31.7568 399.389 32.0356 398.573 32.5938C397.757 33.1089 397.349 33.8388 397.349 34.7832C397.349 35.8135 397.779 36.5864 398.638 37.1016C399.496 37.5738 400.655 37.9387 402.115 38.1963L403.919 38.5186C406.323 38.9479 408.491 39.527 410.423 40.2568C412.398 40.9438 413.943 41.9533 415.059 43.2842C416.218 44.5721 416.798 46.3322 416.798 48.5645C416.798 51.913 415.575 54.5104 413.128 56.3564C410.724 58.1596 407.482 59.0615 403.403 59.0615C399.239 59.0615 395.826 58.1596 393.164 56.3564C390.502 54.5533 388.892 51.9776 388.334 48.6289L395.805 46.6973C396.105 48.1997 396.598 49.3807 397.285 50.2393C398.015 51.0979 398.895 51.7201 399.926 52.1064C400.999 52.4499 402.158 52.6221 403.403 52.6221C405.292 52.6221 406.687 52.2992 407.589 51.6553C408.49 50.9685 408.941 50.1318 408.941 49.1445C408.941 48.1571 408.512 47.4048 407.653 46.8896C406.795 46.3317 405.421 45.8815 403.532 45.5381L401.728 45.2158C399.496 44.7865 397.457 44.2064 395.611 43.4766C393.765 42.7038 392.284 41.6522 391.168 40.3213C390.052 38.9905 389.493 37.2735 389.493 35.1699C389.493 31.9929 390.652 29.5669 392.971 27.8926C395.289 26.1753 398.337 25.3164 402.115 25.3164Z" fill="white"/>
<path d="M176.189 58.1602H168.076V13.0811H176.189V58.1602Z" fill="white"/>
<path d="M231.237 52.6855H232.396L236.518 26.2178H249.526L253.648 52.6855H254.807L257.64 26.2178H265.69L261.182 58.1602H247.723L243.601 31.6924H242.442L238.321 58.1602H224.862L220.354 26.2178H228.404L231.237 52.6855Z" fill="white"/>
<path d="M291.268 25.7031C293.758 25.7031 295.926 26.2824 297.772 27.4414C299.661 28.5576 301.121 30.125 302.151 32.1426C303.182 34.1174 303.697 36.436 303.697 39.0977V58.1602H295.583V39.7422C295.583 37.338 294.982 35.5341 293.78 34.332C292.621 33.13 290.946 32.5293 288.757 32.5293C286.267 32.5293 284.335 33.3667 282.961 35.041C281.587 36.6724 280.9 38.9694 280.9 41.9316V58.1602H272.786V26.2178H280.771V30.4043H281.931C282.446 29.2882 283.411 28.2364 284.828 27.249C286.245 26.2186 288.392 25.7031 291.268 25.7031Z" fill="white"/>
<path d="M58.8417 25.3311C62.8422 25.279 68.1534 26.0842 72.0096 27.2598C77.0255 28.9819 82.1685 31.4312 86.0819 35.0596C89.6958 38.4109 91.159 40.1384 87.243 44.0273C81.9839 49.2487 75.2335 51.6401 68.1073 53.0508C64.8188 53.7019 61.1308 53.7529 57.8153 53.7461C52.6789 53.7286 47.8829 53.1826 42.9627 51.708C37.1975 49.9795 29.1946 46.0605 26.9637 40.1455C27.3368 38.2261 28.7989 36.63 30.2293 35.2842C34.1788 31.5687 39.3815 28.9524 44.5038 27.2764C46.0378 26.7415 47.7525 26.5827 49.2967 26.1875C52.5793 25.3473 55.4913 25.3289 58.8417 25.3311Z" fill="white"/>
<path d="M101.646 0C107.619 0.537542 113.95 5.41809 115.757 11.1211C116.11 12.2379 116.736 14.8026 116.722 15.9697C116.59 26.5727 106.999 33.7755 97.2557 35.2773C93.5846 35.8432 92.5855 36.2277 89.3592 34.5352C88.9513 34.2367 88.6125 33.9993 88.4139 33.5371C88.4886 33.0644 89.2145 32.7403 89.6756 32.501C91.5049 31.549 92.6672 29.6516 94.0692 28.46C93.1469 27.4979 92.6763 26.5716 92.0272 25.4229C88.794 19.6958 89.1515 10.8589 94.1122 6.11621C95.0898 9.11233 98.1022 14.9488 100.796 16.623C101.474 16.4283 101.931 14.3357 102.055 13.6924C102.914 9.19362 102.576 4.45981 101.646 0Z" fill="white"/>
<path d="M14.6776 0.0263672C14.7935 0.0220072 14.8278 0.049224 14.9471 0.0869141C14.9533 0.122763 14.576 2.50613 14.5018 2.8125C13.93 5.17264 13.9806 15.5672 15.8524 16.6016C16.2637 16.3732 16.8013 15.7878 17.1288 15.4316C19.6752 12.6623 21.2395 9.60931 22.5614 6.15527C23.505 7.24556 24.5351 8.64873 25.1708 9.94043C28.0391 15.7693 26.8263 23.8089 22.4002 28.5322C23.5364 29.4634 24.5004 30.9827 25.8045 31.9131C26.4139 32.3473 27.8883 33.0434 28.0682 33.4697C27.9879 33.8155 27.7976 33.9709 27.5594 34.2402C24.3887 36.331 23.0001 35.7988 19.5184 35.3027C12.0923 34.2447 4.2168 29.507 1.25376 22.376C-2.97736 12.1929 4.00142 1.51991 14.6776 0.0263672Z" fill="white"/>
<path fill-rule="evenodd" clip-rule="evenodd" d="M72.5594 10.04C76.0056 9.56336 79.1892 11.9593 79.6854 15.4023C80.1815 18.8456 77.8027 22.0434 74.3622 22.5586C70.8946 23.0777 67.6668 20.6764 67.1668 17.2061C66.667 13.7357 69.0861 10.5208 72.5594 10.04ZM73.454 13.0811C71.7869 13.0812 70.4355 14.4325 70.4354 16.0996C70.4354 17.7667 71.7869 19.1181 73.454 19.1182C75.1211 19.1182 76.4725 17.7668 76.4725 16.0996C76.4725 14.4325 75.1211 13.0811 73.454 13.0811Z" fill="white"/>
<path fill-rule="evenodd" clip-rule="evenodd" d="M42.2391 10.0635C45.6932 9.50017 48.9482 11.8508 49.4999 15.3066C50.0513 18.7626 47.69 22.0089 44.2323 22.5488C40.7912 23.0857 37.5634 20.738 37.0145 17.2988C36.4659 13.8599 38.8022 10.6245 42.2391 10.0635ZM43.2674 13.0811C41.6007 13.0812 40.2493 14.4329 40.2489 16.0996C40.2489 17.7667 41.6004 19.119 43.2674 19.1191C44.9344 19.1189 46.286 17.7666 46.286 16.0996C46.2856 14.4329 44.9342 13.0813 43.2674 13.0811Z" fill="white"/>
</g>
<defs>
<clipPath id="clip0_5472_5037">
<rect width="417" height="64" fill="white"/>
</clipPath>
</defs>
</svg>
