<svg width="120" height="120" viewBox="0 0 120 120" fill="none" xmlns="http://www.w3.org/2000/svg">
<path d="M41.2101 77.0527C41.3818 77.1109 41.314 77.0772 41.4552 77.1611C42.5892 77.8338 43.9279 78.2766 45.1818 78.668C44.9155 79.0227 44.2146 79.7101 43.8409 80.1631C41.9882 82.4053 41.1525 84.0517 40.0782 86.6768C40.0469 86.7368 39.9428 86.8509 39.8947 86.9082C39.6625 87.008 39.5456 87.0327 39.3009 86.9521C36.7828 86.1202 36.277 82.8331 37.1232 80.6533C37.8848 78.6925 39.4043 77.8487 41.2101 77.0527ZM78.4855 77.1162C79.0623 77.0313 80.4844 77.959 80.9943 78.3555C83.2314 80.0924 83.9774 83.4654 82.1388 85.7686C81.8239 86.1626 80.9463 86.9875 80.3878 86.9941C80.1557 86.9966 80.0613 86.9048 79.9113 86.751C79.6382 86.2115 79.4326 85.5146 79.1388 84.9385C77.8439 82.3981 76.7681 80.5855 74.6505 78.7012C75.9885 78.2882 77.306 77.8796 78.4855 77.1162ZM85.0978 73.0518C87.6375 73.2724 89.9591 73.8337 91.8175 75.6602C94.0287 77.8334 94.4934 81.2289 92.1866 83.5244C91.7759 83.934 91.3044 84.3176 90.9093 83.668C90.7126 83.3342 90.2059 82.7078 89.9493 82.3447C87.9265 79.488 84.8663 76.6508 81.4415 75.6699C82.4781 75.2153 83.1781 74.6328 84.0529 73.916C84.4628 73.5805 84.618 73.3382 85.0978 73.0518ZM34.9532 73.1348C35.202 73.3081 35.7122 73.8073 35.9943 74.043C36.8769 74.7798 37.5023 75.1421 38.5187 75.6533C35.189 76.6816 32.4943 78.9576 30.42 81.7178C30.1467 82.0822 29.9762 82.3986 29.671 82.7539L29.6095 82.8242C29.3239 83.0898 29.1646 83.66 28.7501 83.9531C28.428 83.9673 28.1106 83.9103 27.8781 83.6797C24.6294 80.4648 26.6501 75.7235 30.4259 74.0674C31.7287 73.4963 32.1909 73.3268 33.6134 73.1611C34.0701 73.107 34.4954 73.1264 34.9532 73.1348ZM60.4122 53.7686C63.8396 53.7239 68.3898 54.4166 71.6935 55.4268C75.9907 56.9067 80.3974 59.0117 83.7501 62.1299C86.846 65.0097 88.0989 66.494 84.7443 69.8359C80.2386 74.3231 74.455 76.3785 68.3497 77.5908C65.5325 78.1503 62.3728 78.1943 59.5323 78.1885C55.1319 78.1735 51.023 77.7038 46.8077 76.4365C41.8684 74.951 35.012 71.5832 33.1007 66.5C33.4205 64.8506 34.6731 63.4788 35.8986 62.3223C39.2822 59.1293 43.7397 56.8807 48.1281 55.4404C49.4423 54.9808 50.9115 54.8445 52.2345 54.5049C55.0467 53.7828 57.5419 53.7667 60.4122 53.7686ZM68.7863 67.1504C68.3599 66.4405 67.4388 66.2108 66.7286 66.6367C62.5873 69.1215 57.413 69.1215 53.2716 66.6367C52.5615 66.2107 51.6404 66.4405 51.214 67.1504C50.7878 67.8608 51.0183 68.7828 51.7286 69.209C56.8199 72.2636 63.1803 72.2636 68.2716 69.209C68.9818 68.7827 69.2124 67.8607 68.7863 67.1504ZM97.0841 32C102.201 32.462 107.625 36.6566 109.173 41.5576C109.476 42.5174 110.012 44.7205 110 45.7236C109.888 54.8356 101.67 61.0257 93.3224 62.3164C90.1775 62.8026 89.3216 63.1331 86.5577 61.6787C86.2083 61.4223 85.9174 61.2185 85.7472 60.8213C85.8112 60.4152 86.4331 60.1363 86.8282 59.9307C88.3955 59.1126 89.3918 57.4821 90.5929 56.458C89.8027 55.6312 89.399 54.8348 88.8429 53.8477C86.0731 48.926 86.3792 41.3315 90.629 37.2559C91.4666 39.8306 94.048 44.8462 96.3556 46.2852C96.9366 46.1176 97.3283 44.3194 97.4337 43.7666C98.1699 39.9005 97.881 35.8326 97.0841 32ZM22.5753 32.0225C22.6742 32.0188 22.7038 32.0419 22.8058 32.0742C22.8111 32.105 22.4875 34.1537 22.424 34.417C21.9341 36.4452 21.9779 45.3766 23.5812 46.2666C23.9336 46.0704 24.3944 45.5678 24.6749 45.2617C26.8565 42.8818 28.1968 40.2583 29.3292 37.29C30.1376 38.227 31.02 39.433 31.5646 40.543C34.0219 45.5521 32.9835 52.4614 29.1915 56.5205C30.1647 57.3207 30.9904 58.6263 32.1075 59.4258C32.6296 59.799 33.8928 60.3973 34.047 60.7637C33.9781 61.0606 33.8154 61.1944 33.6115 61.4258C30.895 63.2226 29.7047 62.7652 26.7218 62.3389C20.3597 61.4295 13.6129 57.3576 11.0743 51.2295C7.44937 42.4783 13.4286 33.306 22.5753 32.0225ZM72.1642 40.6279C75.1166 40.2183 77.8445 42.2775 78.2697 45.2363C78.6947 48.1954 76.6567 50.9439 73.7091 51.3867C70.7383 51.8328 67.9724 49.7685 67.5441 46.7861C67.1161 43.804 69.1887 41.0411 72.1642 40.6279ZM46.1876 40.6484C49.1468 40.1643 51.9357 42.1844 52.4083 45.1543C52.8807 48.1242 50.8579 50.9139 47.8956 51.3779C44.9476 51.8393 42.1823 49.8218 41.712 46.8662C41.2421 43.911 43.2432 41.1307 46.1876 40.6484ZM47.0685 43.2412C45.6407 43.2416 44.4829 44.4037 44.4825 45.8359C44.4827 47.2683 45.6405 48.4303 47.0685 48.4307C48.4966 48.4305 49.6553 47.2684 49.6554 45.8359C49.6551 44.4036 48.4964 43.2414 47.0685 43.2412ZM72.9308 43.2412C71.5026 43.2413 70.3449 44.4033 70.3448 45.8359C70.345 47.2685 71.5026 48.4296 72.9308 48.4297C74.359 48.4297 75.5166 47.2686 75.5167 45.8359C75.5167 44.4032 74.3591 43.2412 72.9308 43.2412Z" fill="white"/>
</svg>
