<svg width="3588" height="872" viewBox="0 0 3588 872" fill="none" xmlns="http://www.w3.org/2000/svg">
<path d="M464.001 74.5312C568.383 74.5314 663.157 115.758 732.961 182.841C800.153 252.761 841.469 347.794 841.469 452.5C841.469 667.344 667.523 841.469 453 841.469C348.615 841.469 253.84 800.24 184.035 733.154C116.846 663.234 75.5323 568.203 75.5322 463.5C75.5322 248.656 249.478 74.5312 464.001 74.5312Z" stroke="white" stroke-width="39.0625"/>
<path d="M419 19.5312C639.62 19.5312 818.469 198.38 818.469 419C818.469 633.072 650.08 807.812 438.531 817.997V756.977C616.408 746.858 757.531 599.41 757.531 419C757.531 232.034 605.966 80.4688 419 80.4688C232.034 80.4688 80.4688 232.034 80.4688 419C80.4688 599.41 221.592 746.858 399.469 756.977V817.997C187.92 807.812 19.5312 633.072 19.5312 419C19.5312 198.38 198.38 19.5312 419 19.5312Z" fill="white" stroke="white" stroke-width="39.0625"/>
<path d="M405.815 573.256C428.533 573.256 446.95 591.065 446.95 613.034C446.95 635.003 428.533 652.812 405.815 652.812C383.098 652.812 364.682 635.003 364.682 613.034C364.682 591.065 383.098 573.256 405.815 573.256ZM673.51 359.565L597.118 435.957L673.51 512.349L624.927 560.932L548.535 484.54L472.144 560.932L423.56 512.349L499.951 435.956L423.561 359.565L472.144 310.982L548.534 387.373L624.926 310.982L673.51 359.565ZM388.575 358.887L312.184 435.277L388.575 511.669L339.991 560.253L263.6 483.861L187.209 560.253L138.625 511.669L215.016 435.277L138.625 358.887L187.209 310.303L263.6 386.693L339.991 310.303L388.575 358.887Z" fill="white"/>
<path d="M1213.69 699C1109.48 699 1067 650.287 1067 537.72V482.424H1179.17V552.861C1179.17 579.192 1186.48 594.991 1206.39 594.991C1226.96 594.991 1233.6 583.8 1233.6 556.152C1233.6 504.147 1220.33 485.057 1175.19 442.269L1124.08 393.555C1084.92 357.35 1067 317.194 1067 271.114C1067 174.346 1112.8 123 1198.42 123C1303.3 123 1343.12 177.638 1343.12 290.205H1226.96V251.366C1226.96 236.225 1217.01 227.009 1202.41 227.009C1183.82 227.009 1175.86 238.2 1175.86 253.999C1175.86 269.798 1182.49 287.571 1207.72 311.27L1274.09 374.465C1313.25 411.987 1346.44 450.168 1346.44 529.162C1346.44 635.146 1311.92 699 1213.69 699Z" fill="white"/>
<path d="M1433.35 693.734V236.883H1365.65V128.266H1615.22V236.883H1547.52V693.734H1433.35Z" fill="white"/>
<path d="M1617.07 693.734L1672.16 128.266H1865.31L1919.74 693.734H1811.55L1803.58 602.232H1734.55L1727.92 693.734H1617.07ZM1743.18 512.047H1794.96L1769.73 224.376H1764.42L1743.18 512.047Z" fill="white"/>
<path d="M2071.97 699C1989.67 699 1949.84 641.729 1949.84 525.213V281.647C1949.84 176.979 1996.97 123 2089.89 123C2205.39 123 2232.6 194.095 2232.6 320.486H2121.09V269.798C2121.09 245.441 2116.44 227.009 2095.2 227.009C2068.65 227.009 2062.68 248.074 2062.68 269.139V542.986C2062.68 573.926 2068.65 594.991 2092.55 594.991C2116.44 594.991 2122.42 573.926 2122.42 542.986V462.017H2091.89V364.591H2231.27V693.734H2185.48L2166.23 646.337C2145.65 681.885 2114.45 699 2071.97 699Z" fill="white"/>
<path d="M2283.28 693.734V128.266H2511.61V237.542H2399.44V347.475H2506.96V454.118H2399.44V583.8H2518.91V693.734H2283.28Z" fill="white"/>
<path d="M2562.79 693.734V597.624H2678.95V693.734H2562.79Z" fill="white"/>
<path d="M2721.77 693.734V128.266H2950.1V238.2H2836.6V328.385H2944.13V437.002H2836.6V693.734H2721.77Z" fill="white"/>
<path d="M3125.61 699C3030.69 699 2986.88 645.021 2986.88 542.328V128.266H3097.73V537.72C3097.73 566.026 3099.72 594.991 3125.61 594.991C3151.49 594.991 3153.49 566.685 3153.49 537.72V128.266H3264.33V542.328C3264.33 645.021 3220.52 699 3125.61 699Z" fill="white"/>
<path d="M3307.9 693.734V128.266H3425.38L3477.82 398.822V128.266H3588V693.734H3476.49L3419.41 410.671V693.734H3307.9Z" fill="white"/>
</svg>
