<svg width="1651" height="981" viewBox="0 0 1651 981" fill="none" xmlns="http://www.w3.org/2000/svg">
<path d="M1218.6 740.958C1235.13 740.533 1236.24 748.518 1229.07 762.43C1226.16 767.801 1213.21 778.015 1206.84 777.851C1201.18 776.057 1176.4 784.67 1174.92 790.452C1170.7 806.903 1200.28 804.534 1206.64 801.962L1209.12 801.302L1210.14 802.2C1208.79 805.149 1203.8 806.46 1201.05 807.451C1183.76 813.505 1161.67 805.675 1168.02 783.802C1172.23 769.288 1182.85 758.944 1194.9 750.421C1201.47 745.786 1210.79 742.865 1218.6 740.958ZM1224.55 746.861C1218.2 750.741 1218.14 747.416 1212.32 748.611C1196.26 751.91 1181.62 767.022 1175.92 782.047C1180.33 780.174 1186.28 777.849 1190.36 775.569C1196.26 771.007 1200.68 762.319 1205.97 761.897L1207.77 763.368C1206.45 766.131 1203.6 770.328 1203.86 772.592C1212.63 774.916 1228.58 758.187 1227.89 747.994L1226.92 746.674L1225.25 746.426L1224.55 746.861Z" fill="#5400FF"/>
<path d="M1300 436.535C1300.92 436.197 1301.04 436.406 1302.2 436.57C1303.97 438.755 1303.67 437.725 1303.42 440.393C1300.4 444.48 1293.44 443.32 1288.62 443.896C1271.81 445.901 1254.86 446.16 1237.97 446.831C1226.11 447.301 1214.42 448.4 1202.59 449.106C1192.37 449.655 1176.33 449.178 1165.87 450.935C1165.2 451.221 1163.78 452.232 1162.98 452.177C1138.51 450.519 1114.24 453.708 1089.78 452.806C1084.56 452.614 1080.62 450.07 1075.14 450.012C1074.38 450.631 1071.67 452.78 1070.83 452.828C1062.46 453.304 1050.34 453.442 1042.27 452.784C1035.71 452.37 1029.17 448.014 1022.82 450.519C1018.79 452.108 1011.84 451.078 1007.49 451.088C1002.27 451.099 997.138 451.03 991.963 451.063C986.585 451.55 980.281 452.378 976.517 447.625L977.008 446.463C984.949 442.384 1048.65 447.347 1061.4 446.926C1081.82 446.253 1103.46 447.387 1124.18 446.035C1135.57 445.402 1147.91 446.64 1159.21 445.731C1195.65 442.803 1232.08 440.62 1268.63 439.833C1278.13 439.628 1289.85 437.139 1300 436.535Z" fill="#5400FF"/>
<path d="M533.836 252.2C534.604 252.179 535.389 252.473 536.166 252.677C537.293 255.633 535.1 259.415 534.253 263.097C528.21 289.361 513.941 310.712 503.563 334.822C511.436 327.122 545.907 280.764 553.102 283.204C554.535 290.246 536.938 318.209 532.412 329.837C542.159 325.98 553.707 318.849 562.748 313.45C570.493 308.826 576.049 301.079 581.852 294.274C580.646 307.374 572.777 316.339 568.331 330.462C584.955 323.014 595.123 311.728 604.639 296.107C607.188 291.925 606.706 284.846 609.95 282.889C612.407 284.4 611.802 284.219 613.37 286.99C611.455 302.005 582.922 335.161 567.226 334.31C559.923 330.162 568.63 317.727 571.519 312.531C561.432 318.147 542.416 332.16 533.313 333.578C531.122 335.721 530.719 336.611 528.06 334.977C525.258 328.106 535.024 310.001 540.185 305.216C542.106 304.734 542.014 304.774 543.595 303.577C543.666 301.419 542.579 300.4 541.278 298.576C533.544 306.624 504.446 344.629 495.274 344.243C494.356 341.709 495.363 338.609 496.51 336.214C509.219 309.686 524.66 286.143 530.52 256.788C528.316 258.653 525.079 261.924 522.499 262.262C523.548 258.238 530.367 254.349 533.836 252.2Z" fill="#5400FF"/>
<path d="M726.566 275.318C728.466 276.054 728.359 276.019 729.588 277.673C729.401 286.435 708.454 301.216 714.193 310.655C716.276 311.016 724.94 307.624 728.159 306.712C724.53 309.847 717.77 315.583 712.722 315.109C708.588 314.721 708.25 311.62 705.943 308.707C693.251 313.109 689.455 324.635 672.453 321.31C670.073 320.844 661.027 329.999 655.515 325.923C651.893 315.608 670.475 297.092 666.144 290.858C655.467 292.792 640.72 327.01 631.386 320.993C630.54 315.843 635.576 310.95 638.649 307.056C632.648 310.957 618.182 325.841 612.087 324.387L611.201 322.408C611.199 314.647 616.198 306.696 618.659 299.487C619.721 296.377 618.244 293.69 620.461 291.203C629.343 294.934 616.159 308.135 618.725 315.554L620.451 315.887C625.784 311.248 642.294 289.29 647.702 290.872C648.499 296.559 642.002 304.777 640.485 311.089C644.89 308.058 667.513 273.448 674.027 278.668C676.744 286.969 663.25 310.266 659.965 323.275L671.71 318.985C672.082 314.865 672.229 312.12 674.462 308.513C678.348 302.234 701.048 276.153 708.732 284.869L708.43 286.186C705.925 287.539 704.027 287.573 701.211 287.938L701.414 288.03C696.791 292.783 676.046 309.287 678.641 316.025C686.138 318.162 705.828 303.49 709.937 297.7C716.512 288.437 717.55 283.034 726.566 275.318Z" fill="#5400FF"/>
<path d="M788.859 741.012C797.766 740.203 799.07 743.993 802.343 751.276C801.54 758.339 799.998 764.627 798.425 771.55C807.063 763.364 821.396 751.006 832.868 747.54C836.955 746.303 846.822 746.737 847.685 752.512C846.597 754.919 845.903 755.266 843.872 756.973C840.155 756.431 841.074 752.656 837.947 752.953C823.25 754.348 810.828 767.744 800.942 777.502L799.009 774.434C794.861 778.475 791.176 795.835 782.92 797.95L781.556 796.96C780.527 791.677 789.341 778.495 791.847 770.682C792.912 766.648 793.697 762.192 794.509 758.073C791.275 754.867 789.315 752.627 786.436 749.09C775.982 770.944 760.889 803.957 764.959 829.021C765.576 832.818 762.994 837.082 758.986 836.445L758.511 835.075L760.537 832.753C760.674 828.175 755.163 825.845 754.187 820.082C760.578 805.673 755.753 808.41 757.85 795.064C760.336 779.243 770.239 758.73 778.669 745C780.719 741.663 785.139 741.543 788.859 741.012Z" fill="#5400FF"/>
<path d="M1216.73 828.264C1217.29 828.634 1219.23 829.723 1219.27 830.222C1220.47 841.298 1208.75 853.325 1207.46 864.263C1206.8 869.72 1207.91 878.765 1211.13 883.182C1213 885.753 1216.18 886.777 1217.56 890.404L1216.54 891.581C1206.16 894.354 1202.26 878.692 1200.37 871.115C1198.77 873.646 1197.04 876.105 1195.2 878.474C1188.28 887.349 1165.25 911.79 1153.42 902.528C1153.25 900.795 1153.3 900.424 1152.45 898.836C1149 898.135 1144.92 900.279 1141.46 901.609C1129.38 893.314 1135.2 885.342 1139 873.364C1135.59 878.402 1124.31 895.708 1117.76 894.072C1113.91 886.801 1127.81 861.192 1135.28 856.13C1137.54 862.079 1130.02 870.833 1129.38 876.629L1130.69 878.136C1137.23 877.289 1142.25 863.102 1147.16 861.071L1148.26 862.135C1150.66 874.452 1132.48 886.019 1143.28 894.435C1143.93 894.935 1150.48 895.668 1151.83 895.813C1155.46 889.099 1171.72 868.326 1178.81 867.23C1181.34 868.471 1181 867.818 1181.96 869.849C1172.1 879.345 1164.77 886.487 1157.45 898.054C1160.86 897.812 1164.84 897.828 1168.06 896.595C1181.29 891.533 1193.34 867.447 1199.52 865.247C1199.75 865.166 1199.98 865.102 1200.21 865.029C1201.76 860.217 1204.42 854.453 1205.9 849.979C1210.41 836.324 1203.44 839.315 1216.73 828.264Z" fill="#5400FF"/>
<path d="M1040.3 636.485C1041.91 637.735 1043.54 638.9 1045.62 638.886C1081.11 638.639 1116.63 636.887 1152.15 638.659C1197.49 640.92 1241.02 649.652 1285.46 657.861C1295.85 659.779 1319.11 661.814 1327.91 666.079C1326.15 667.306 1323.15 666.929 1320.8 666.923C1294.53 666.857 1252.59 656.744 1225.14 652.714C1201.75 648.491 1178.49 646.604 1154.85 644.516C1116.34 641.116 1077.83 645.856 1039.53 644.263C1037.98 644.199 1037.53 643.341 1036.87 642.217C1037.13 639.648 1038.56 638.509 1040.3 636.485Z" fill="#5400FF"/>
<path d="M265.703 639.614L268.479 640.282C273.468 647.486 242.984 687.148 250.638 696.783C255.884 695.764 263.684 691.741 270.814 689.939C267.213 693.062 257.969 700.119 253.877 701.485C229.448 709.645 251.313 668.752 254.114 663.105C251.797 665.204 248.061 668.874 245.478 670.204L245.465 667.796C241.529 669.095 242.031 675.272 240.038 677.269C235.564 681.752 227.064 690.566 220.732 690.804C212.655 687.044 222.35 663.83 224.597 657.403C221.991 660.292 220.463 662.214 218.176 665.37C214.181 672.062 193.756 705.165 186.859 704.448C184.842 697.628 200.521 673.338 205.112 666.92C206.637 664.788 209.822 668.002 212.15 665.113C216.744 659.412 223.233 644.937 229.58 641.806L230.835 642.326C232.285 647.335 224.796 674.929 223.593 683.979C238.776 672.973 253.839 654.325 265.703 639.614Z" fill="#5400FF"/>
<path d="M979.476 557.255C982.007 558.465 981.314 557.69 982.354 559.988C981.612 563.305 977.838 566.916 975.291 569.109C975.404 570.247 975.751 572.123 975.469 573.095C966.101 584.934 957.218 591.789 970.092 605.342C974.413 606.715 980.322 607.757 983.684 609.942L983.619 610.88C977.436 612.831 960.87 612.112 963.393 602.258C951.187 599.778 960.49 585.368 941.086 607.856C936.483 613.194 905.164 613.501 899.255 608.706C895.426 605.596 900.964 595.287 898.118 594.64C895.45 596.831 892.435 599.683 889.21 600.673C886.994 600.159 886.864 599.953 884.979 598.567C888.171 595.636 903.849 581.556 906.913 581.046C917.063 585.66 888.146 613.069 918.353 607.491C922.762 606.678 924.068 599.529 927.147 596.791C932.766 591.034 942.578 583.391 950.454 581.228C951.253 581.007 954.411 582.095 955.218 582.381C959.95 579.373 960.676 572.402 964.029 570.282L964.924 571.167L964.489 574.697L966.359 573.231C968.092 571.866 968.657 571.604 970.672 570.695L971.849 568.562C969.559 564.666 968.116 567.909 968.31 564.36C970.341 562.086 976.453 557.618 979.476 557.255ZM952.937 585.092C946.455 589.78 933.041 596.701 929.8 604.039L930.283 605.653C932.121 606.068 933.129 605.374 934.887 604.619C937.208 604.573 938.765 604.624 941.078 604.808L941.247 604.372C944.464 596.317 954.097 595.366 956.354 588.013C955.339 585.71 955.798 586.476 952.937 585.092Z" fill="#5400FF"/>
<path d="M1382.42 264.68C1384.8 265.292 1383.82 264.696 1385.46 266.533C1386.12 271.663 1379.7 280.561 1377.59 287.173L1377.32 288.068C1391.97 287.002 1397.24 284.882 1412.6 287.216C1438.43 271.402 1423.86 297.692 1429.44 308.333C1431.49 312.254 1436 311.613 1439.98 312.703L1440.14 314.041C1439 315.441 1438.08 316.728 1436.11 316.825C1423.69 317.439 1421.65 308.105 1420.4 299.497C1414.35 307.707 1404.62 311.963 1394.46 310.752C1390.88 308.993 1390.61 308.355 1389.84 304.734C1391.02 298.369 1399.83 293.203 1405.12 289.567C1395.55 290.652 1382.88 292.836 1373.68 295.497C1360.2 322.785 1372.18 313.608 1375.01 324.241C1370.2 326.832 1362.91 322.987 1361.41 317.944C1360.1 313.496 1362.88 307.229 1364.43 303.104C1366.95 296.388 1365.24 298.376 1362.95 293.584C1364.69 291.63 1366.54 291.358 1369.1 290.54C1374.33 281.789 1376.25 271.852 1382.42 264.68ZM1420.94 288.564C1413.83 291.654 1401.13 296.974 1397.17 303.944L1397.47 305.561L1398.74 306.219C1404.46 304.705 1423.9 296.657 1422.32 289.158L1420.94 288.564Z" fill="#5400FF"/>
<path d="M202.636 286.105C205.777 286.413 204.958 285.875 206.965 287.66C205.715 291.413 177.949 300.346 176.009 310.413C180.761 314.189 197.253 308.93 196.518 320.372C192.528 328.129 168.442 336.652 165.068 329.573L165.836 328.043C172.249 324.204 187.453 327.244 191.469 319.67L190.894 318.371C172.225 308.472 153.341 333.946 135.065 337.346C126.182 338.998 125.667 334.392 124.199 327.798C119.081 331.556 110.116 338.238 103.634 335.894C96.2867 327.864 110.539 312.033 116.657 306.598L118.279 300.874C120.643 296.759 124.552 293.184 128.351 290.407C130.875 290.223 129.731 289.955 131.906 291.224C131.873 296.348 125.278 296.453 123.148 300.342C119.692 306.651 106.301 324.389 107.673 330.894L109.097 331.584C121.562 330.603 141.515 300.927 149.267 292.112C150.924 290.229 153.519 290.029 155.773 291.013C156.517 297.529 129.037 318.823 131.482 330.409C137.037 335.884 163.163 318.309 168.557 314.424C169.503 306.165 173.605 300.278 181.779 297.279C182.603 297.428 185.49 298.398 186.159 297.524C192.118 289.749 193.674 289.468 202.636 286.105Z" fill="#5400FF"/>
<path d="M1572.5 739.667C1576 740.409 1574.92 739.739 1577.19 741.899C1578.79 747.331 1571.43 761.289 1570.16 766.557C1569.93 767.5 1571.07 768.295 1571.95 769.244C1570.92 774.374 1563.13 773.273 1566.34 782.661C1571.01 796.273 1579.49 789.748 1584.83 792.159C1582.7 796.467 1575.34 798.247 1570.88 796.754C1564.45 794.594 1561.9 790.214 1558.78 784.576L1557.66 784.399C1555.57 791.505 1542.48 799.795 1535.82 800.062C1530.05 797.493 1533.2 793.529 1530.7 790.265C1527.59 786.207 1525.77 786.023 1523.47 780.733C1523.39 779.919 1523.3 779.105 1523.2 778.293C1522.81 775.486 1522.76 775.447 1520.93 774.092C1513.96 775.598 1511.26 787.311 1504.58 790.447C1502.06 790.13 1503 790.63 1501.26 788.507C1502.03 784.476 1508.67 771.687 1511.99 769.247C1520.65 773.952 1517.98 767.108 1525.22 766.08C1531.93 770.048 1527.93 781.133 1534.49 784.459C1538.23 784.342 1551.72 773.957 1557.86 771.408L1558.58 771.112C1564.59 757.565 1563.14 750.516 1572.5 739.667ZM1555.78 778.674C1551.01 781.101 1540.61 786.779 1538.59 791.729L1539.23 792.772C1544.67 791.488 1555.7 785.475 1556.26 779.42L1555.78 778.674Z" fill="#5400FF"/>
<path d="M1516.61 482.898C1521.24 482.89 1527.65 483.686 1528.09 489.694C1529.15 504.291 1490.39 508.287 1491.03 516.317C1496.8 522.685 1512.03 520.45 1521.24 521.538C1507.29 527.938 1502.7 524.291 1487.13 522.857L1482.46 516.671C1466.55 522.595 1461.55 524.267 1444.27 523.917C1443.72 523.799 1443.17 523.67 1442.63 523.53C1422.74 518.548 1446.11 495.961 1456.35 499.286C1458.17 503.254 1443.33 508.722 1442.03 515.757C1445.27 521.704 1475.2 519.382 1478.31 513.367C1476.97 512.119 1475.98 511.127 1474.73 509.776L1475.15 508.473C1477.67 506.152 1478.97 507.09 1482.04 506.738C1483.37 506.587 1489.15 499.196 1490.16 498.127C1495.99 491.936 1509.56 486.473 1516.61 482.898ZM1521.95 490.943C1520.63 488.172 1517.22 489.18 1514.49 489.507C1509.95 491.081 1496.15 499.12 1494.01 503.485L1494.61 504.41C1497.26 504.593 1497.73 504.273 1500.32 503.419C1506.05 501.322 1519.35 496.593 1521.95 490.943Z" fill="#5400FF"/>
<path d="M520.222 433.212C523.902 432.747 533.01 433.601 536.864 433.546C548.055 433.387 612.562 432.969 617.165 437.612L615.918 438.984C608.868 441.936 579.408 439.448 569.947 438.93C540.709 437.329 511.909 440.765 482.979 441.021C481.513 441.395 477.194 441.445 475.23 441.571C447.857 443.329 420.683 445.428 393.425 448.079C391.622 448.253 389.363 447.176 388.217 445.801L389.345 444.401C394.822 442.12 407.767 441.622 414.146 440.831C449.337 436.468 485.14 436.524 520.222 433.212Z" fill="#5400FF"/>
<path d="M717.583 627.464C732.041 624.955 738.496 628.559 744.848 641.376C743.944 640.571 743.035 639.772 742.119 638.982C728.654 627.363 713.459 633.167 696.874 634.77C654.095 638.903 611.022 638.504 568.084 639.585C548.976 640.067 527.248 636.537 508.48 637.919C503.437 637.962 481.667 638.968 478.805 638.151L478.583 636.982C488.724 628.875 541.288 634.488 555.91 634.972C569.031 635.407 583.307 635.212 596.496 634.992C636.962 634.611 677.381 632.098 717.583 627.464Z" fill="#5400FF"/>
<path d="M503.226 643.613C505.257 643.873 505.369 643.938 507.231 644.839C507.363 645.335 507.494 645.832 507.625 646.328C500.555 659.836 474.881 699 483.989 713.556C487.365 718.951 515.866 710.709 526.667 709.263C517.248 716.23 498.931 721.022 487.248 719.511C485.554 719.291 486.022 714.649 479.717 716.941C473.701 712.656 476.358 700.227 477.847 693.996C480.653 687.195 484.002 680.57 487.246 673.961C481.762 678.29 445.974 716.389 438.892 707.22C438.718 703.2 441.677 696.362 443.962 693.779C447.878 689.354 463.9 678.613 469.164 678.198C470.3 679.338 470.651 679.815 472.121 680.563C483.529 672.58 496.121 655.515 503.226 643.613ZM465.379 682.421C462.961 688.615 445.326 695.156 446.124 701.274C447.57 700.917 447.385 701.173 448.456 700.349C453.411 699 466.111 688.709 468.266 684.205L467.75 683.105L465.379 682.421Z" fill="#5400FF"/>
<path d="M1292.66 284.788C1312 286.133 1301.15 308.736 1290.59 308.627C1290.25 303.956 1299.23 299.605 1298.06 292.563C1290.06 283.805 1274.15 297.041 1274.49 310.357C1276.88 313.019 1278.2 309.868 1281.82 312.026L1281.65 313.892C1278.78 316.849 1276.07 315.571 1274.6 316.76C1267.74 322.319 1266.42 352.496 1258.6 356.013L1257.07 355.431C1254.83 350.446 1257.61 336.588 1261.26 332.127C1261.97 331.264 1262.02 328.059 1262.15 326.804C1246.44 329.177 1235.87 333.657 1227.71 316.989C1229.54 310.555 1230.73 305.362 1235.02 299.978C1238.29 295.869 1244.88 290.939 1249.66 295.305C1253.04 305.979 1236.49 308.26 1233.86 317.889C1235.77 326.991 1254.61 324.573 1261.43 323.739C1263.85 305.762 1273.14 287.57 1292.66 284.788Z" fill="#5400FF"/>
<path d="M1494.46 860.032C1516.67 860.927 1509.32 894.927 1475.22 900.126C1467.77 899.731 1459.6 895.314 1463.91 886.544C1470 874.163 1482.01 865.28 1494.46 860.032ZM1493.36 865.714C1486.86 869.647 1468.6 881.956 1469.43 890.477C1471.73 893.467 1472.74 893.202 1476.67 893.057C1479.42 893.137 1483.61 892.967 1486.18 893.104C1498.94 893.79 1508.57 865.609 1493.36 865.714Z" fill="#5400FF"/>
<path d="M753.548 474.563C756.423 476.896 755.939 475.831 756.411 478.635C752.89 488.761 736.275 492.622 736.456 502.002C737.072 502.761 737.805 503.635 738.759 503.948C754.917 509.249 766.442 502.646 780.744 497.818C782.957 493.981 784.94 490.961 788.912 488.888C796.557 484.897 807.047 477.885 815.399 482.679L815.496 484.374C809.861 488.069 793.168 488.432 789.578 495.2L789.977 496.333C795.833 499.722 812.924 496.779 820.107 497.207C824.234 497.453 826.492 498.053 830.522 499.227C830.804 500.858 831.514 502.821 830.16 504.033C824.492 509.1 805.662 513.629 798.821 514.839C806.628 510.268 811.384 506.157 820.042 503.15C810.892 502.802 801.463 503.364 792.275 503.105C790.769 503.628 783.591 499.76 782.929 500.048C768.975 506.118 737.675 522.415 729.698 500.826C729.195 499.463 727.29 501.506 724.81 501.343L724.142 499.885C729.203 492.173 744.773 479.287 753.548 474.563Z" fill="#5400FF"/>
<path d="M1038.36 295.531C1039.05 295.85 1039.94 296.616 1040.58 297.111C1044.31 310.004 1015.11 323.554 1019.35 332.15C1027.55 335.361 1045.52 325.006 1053.49 321.909C1067.18 316.586 1066.93 306.602 1074.82 296.633L1076.15 296.588C1077.59 301.526 1071.57 314.213 1069.98 321.008L1070.5 321.337C1073.88 316.307 1088.55 298.123 1093.91 297.778L1094.77 299.485C1095.12 303.564 1093.06 307.798 1091.57 311.697C1091.04 313.852 1091.03 313.931 1091.39 316.141C1096.54 320.32 1104.71 314.212 1107.94 315.724L1107.58 316.08L1107.32 315.482L1107 316.551C1099.99 321.932 1095.65 322.205 1087.3 323.373C1087.2 319.35 1088.17 309.353 1083.1 309.283C1081.08 311.112 1081.18 311.613 1080.52 314.096C1079.26 318.801 1066.74 332.937 1061.66 331.559C1060.27 329.188 1060.61 326.571 1060.61 323.699C1057.96 322.784 1055.95 325.394 1053.06 326.453C1043.48 329.961 1025.49 343.415 1015.95 335.124C1013.29 332.805 1013.95 326.895 1014.09 323.66C1020.96 311.496 1026.05 302.908 1038.36 295.531Z" fill="#5400FF"/>
<path d="M270.444 369.391L272.861 370.466C274.429 374.356 270.599 384.957 269.651 391.518C283.192 393.575 295.917 390.344 310.036 389.953C312.174 385.109 312.021 379.57 317.169 376.909C319.996 382.213 313.716 401.023 312.157 408.146L312.713 407.566C316.18 403.96 319.464 399.347 324.329 399.249C327.045 399.881 328.354 401.807 330.194 403.891C329.827 410.496 328.409 415.771 328.196 422.787C329.196 424.476 329.248 424.519 329.795 426.387C328.459 428.054 329.109 427.539 326.494 427.983C320.908 426.047 322.142 420.705 322.69 415.743C323.289 411.279 323.642 407.639 323.922 403.143C318.896 407.382 311.148 418.722 305.242 418.907L304.334 417.429C303.543 410.382 306.644 400.584 308.526 393.688C292.528 396.543 285.493 397.776 269.252 398.604C266.63 404.926 267.556 415.532 264.088 419.747L262.595 419.021C259.277 410.324 261.379 403.243 260.573 393.07C266.102 385.944 264.463 376.292 270.444 369.391Z" fill="#5400FF"/>
<path d="M911.395 736.728C924.334 737.952 920.948 754.016 915.547 755.296C912.612 750.279 915.998 749.177 911.04 742.076C897.287 750.68 884.832 768.127 877.118 782.136C884.421 780.963 907.735 767.251 910.436 760.72L911.564 760.503L913.886 762.212L913.91 764.114C910.404 770.569 894.982 779.339 888.557 783.136C882.648 786.572 878.061 787.679 871.571 789.575C868.395 795.393 859.842 814.738 853.683 812.521C852.933 808.273 873.998 766.194 875.771 758.428C876.182 756.618 877.424 756.375 878.939 755.884C881.318 756.534 880.487 755.939 881.906 758.132C882.091 762.047 879.721 765.801 878.069 769.681C886.332 757.79 897.795 742.138 911.395 736.728Z" fill="#5400FF"/>
<path d="M951.389 492.309C954.17 492.661 953.186 492.184 955.153 494.01C954.468 498.005 935.153 503.717 936.652 509.889C946.793 512.589 954.097 499.915 961.207 494.341L962.223 494.83C963.811 500.236 958.297 504.458 957.024 508.714C953.928 519.069 952.437 548.2 940.11 551.672C937.482 551.221 938.442 551.592 936.322 549.334C936.571 546.469 941.32 543.254 943.077 540.85C946.358 536.37 949.986 517.369 949.413 512.4C947.277 511.74 946.431 512.659 943.875 513.686C939.49 514.933 937.748 514.647 933.879 515.343C922.98 517.3 913.08 521.96 905.47 510.491L904.946 509.699C896.957 510.997 889.178 521.947 880.229 516.858C877.996 508.642 905.212 497.849 911.927 495.998C913.862 497.259 913.233 496.398 913.782 498.731C912.629 502 911.411 503.006 909.041 505.523C911.548 508.602 913.83 511.092 916.547 513.991L927.244 512.642C932.944 501.771 940.747 497.302 951.389 492.309Z" fill="#5400FF"/>
<path d="M415.584 553.427C416.109 553.807 416.689 554.191 417.159 554.644C422.382 559.673 401.131 592.179 401.798 603.263C401.896 604.872 402.482 606.457 403.734 607.493C407.273 610.425 413.553 608.188 417.758 608.007C420.008 607.909 422.039 608.384 423.719 609.914L422.847 611.026C419.728 612.206 409.683 612.605 405.313 613.071C388.273 606.492 399.728 597.338 397.165 592.117L395.488 593.716C390.641 600.346 373.556 615.682 365.051 612.315C363.824 610.83 363.195 610.568 363.06 608.535C362.86 605.509 365.602 601.656 367.496 599.31C372.187 593.498 379.748 587.22 386.419 583.732C387.43 583.204 395.857 582.271 397.381 582.104C401.362 578.621 412.329 558.976 415.584 553.427ZM392.87 585.072C386.48 589.668 371.503 598.93 369.67 606.785L370.662 607.23L371.142 606.878C373.245 606.061 378.463 604.087 379.987 602.678C383.519 599.413 396.113 590.701 394.171 585.677L392.87 585.072Z" fill="#5400FF"/>
<path d="M1033.39 486.568C1034.8 486.77 1036.34 487.127 1037.75 487.42L1038.32 488.455C1034.62 491.572 1035 490.693 1033.83 495.29C1032.31 501.257 1030.37 507.261 1028.59 513.177C1032.13 510.688 1036.78 508.487 1040.61 505.976C1044.3 503.558 1051.68 494.488 1055.36 495.817C1056.64 500.959 1052.53 507.374 1054.11 512.258C1060.22 519.963 1067.1 514.608 1069.68 518.784C1064.49 522.458 1056 520.141 1050.91 517.28C1047.45 515.334 1047.31 511.849 1046.49 508.221C1042.86 511.036 1039.07 513.651 1035.16 516.054C1032.56 517.619 1027.1 520.806 1023.92 519.849C1022.61 519.455 1022.05 517.53 1021.26 515.994C1019.15 514.991 1016.11 517.14 1012.32 518.097C1004.11 521.02 997.34 521.971 988.803 523.298C986.336 521.863 982.813 520.798 980.024 519.833L976.444 511.321C980.362 501.811 993.535 492.173 1003.47 493.291C1005.3 494.703 1005.5 494.903 1006.27 497.08C1004.35 506.656 984.038 506.259 984.482 514.665C990.689 523.245 1020.34 516.034 1024.58 505.342C1026.98 499.279 1030.32 492.344 1033.39 486.568Z" fill="#5400FF"/>
<path d="M1527.42 282.059C1540.72 281.287 1540.82 287.549 1542 298.168C1534.12 309.199 1527.59 312.64 1513.79 313.06C1509.26 312.968 1505.09 313.023 1501.37 310.006C1500.04 308.931 1499.14 307.391 1499 305.672C1497.77 290.107 1522.23 288.234 1526.97 282.616C1527.12 282.433 1527.26 282.244 1527.42 282.059ZM1530.59 287.883C1522.73 289.879 1505.72 296.329 1505 305.366C1506.93 307.753 1508.33 308.159 1511.52 308.203C1521.19 306.642 1526.68 306.428 1534.67 300.435C1535.13 297.173 1536.16 292.733 1534.98 289.838C1533.28 288.251 1532.99 288.33 1530.59 287.883Z" fill="#5400FF"/>
<path d="M122.629 561.916C148.003 561.545 128.14 593.985 109.99 598.667C103.286 596.924 90.9036 597.674 96.1032 585.888C101.108 574.543 111.622 566.546 122.629 561.916ZM124.977 567.36C116.546 570.881 91.5216 586 106.825 595.211C117.132 588.188 130.454 583.445 128.768 568.644C127.294 567.062 127.835 567.56 124.977 567.36Z" fill="#5400FF"/>
<path d="M1269.5 859.733C1272.38 860.628 1271.7 859.943 1272.96 862.055C1272.76 865.642 1268.58 868.528 1268.57 869.229C1268.41 879.426 1257.49 883.013 1253.99 889.494C1245.2 905.744 1234.83 923.301 1231.91 941.599C1231.83 942.203 1234.67 948.322 1235.07 949.918C1230.75 953.972 1228 948.926 1225.97 946.016C1225.84 935.15 1226.39 933.506 1230.13 923.261C1235.68 908.961 1240.43 900.779 1247.79 887.261L1234.95 886.576C1225.44 880.135 1224.4 875.484 1230.79 867.689C1230.43 868.125 1231.81 865.231 1232.04 864.868L1233.65 865.448C1236.98 872.236 1229 871.438 1238.49 881.038L1248.91 880.957C1254.95 876.516 1259.65 867.496 1269.5 859.733Z" fill="#5400FF"/>
<path d="M233.605 391.914C238.602 391.661 243.878 392.492 244.836 398.639C245.762 404.575 239.725 414.345 233.558 415.347C231.659 415.655 231.984 415.274 230.199 416.36C229.927 418.104 229.927 418.433 229.153 420.102C225.918 422.11 218.899 423.736 214.975 424.825C186.994 421.907 210.173 400.318 222.663 395.473C226.704 393.905 229.264 392.974 233.605 391.914ZM233.989 397.842C228.312 402.628 209.406 405.171 208.123 415.263C209.084 417.67 210.29 419.432 213.196 419.696C222.023 418.085 238.096 411.727 240.269 402.029C239.36 398.954 237.608 398.422 234.647 397.281L233.989 397.842Z" fill="#5400FF"/>
<path d="M99.8015 454.494C101.807 455.314 101.928 455.311 103.124 457.033C101.748 461.943 89.6488 466.569 84.72 469.085C74.6949 474.201 44.2541 496.751 43.8089 508.287C43.7164 510.277 44.4803 512.21 45.9072 513.599C53.6589 521.181 88.6347 501.312 96.8365 498.029C99.558 496.94 100.978 496.416 102.879 498.725C102.162 501.672 102.759 500.572 99.7168 502.845C87.0224 507.228 40.9658 536.735 37.1851 508.326C37.823 506.523 38.524 504.742 39.2867 502.988C47.5941 484.372 80.7078 461.924 99.8015 454.494Z" fill="#5400FF"/>
<path d="M1376.53 479.289C1377.63 489.711 1360.68 517.481 1369.36 525.933C1375.68 526.489 1385.04 504.144 1396.48 511.128L1397.12 511.521L1399.08 513.113C1409.3 508.162 1412.4 498.059 1419.6 494.28C1421.49 497.298 1411.48 510.912 1419.69 519.276C1423.35 519.879 1427.74 519.847 1430.42 522.025L1430.55 523.408C1426.7 526.372 1418.15 524.296 1414.23 522.113C1410.6 520.084 1410.07 516.679 1409.19 512.991C1398.64 520.026 1383.13 527.201 1370.72 528.885C1348.08 531.956 1369.03 484.607 1375.46 478.956L1376.53 479.289ZM1397.12 511.522C1394.71 513.111 1390.53 515.619 1388.8 517.647L1388.78 518.578L1388.25 518.301L1387.92 519.314C1396.42 517.219 1394.29 515.306 1399.08 513.114L1397.12 511.522Z" fill="#5400FF"/>
<path d="M1337.99 504.855C1356.85 503.786 1354.56 530.596 1320.5 535.506C1318.83 542.912 1316.7 550.032 1313.31 556.862C1312.05 556.826 1311.63 556.524 1310.42 556.067C1309.72 554.826 1308.87 553.608 1309.34 552.119C1313.49 538.936 1315.21 524.705 1318.84 511.437C1320.44 509.894 1319.54 510.213 1321.55 510.193C1322.69 511.901 1322.94 512.663 1323.73 514.582C1327.06 513.897 1329.27 507.769 1337.99 504.855ZM1338.58 509.986C1333.55 513.024 1323.01 522.275 1324.34 528.616L1325.56 529.399L1329.18 528.576C1332.99 526.883 1337.02 525.249 1340.49 522.972L1344.17 515.186C1342.7 512.897 1341.89 510.954 1339.47 509.992L1338.58 509.986Z" fill="#5400FF"/>
<path d="M1442.13 842.821C1443.08 846.223 1431.14 876.242 1429.31 886.052C1431.82 884.52 1433.39 883.698 1435.48 881.546C1436.01 878.449 1436.11 876.302 1439.2 874.756L1438.68 878.217L1439.6 878.435C1442.83 876.008 1444.8 872.84 1447.24 869.382C1450.89 864.215 1458.8 866.078 1463.04 869.455C1465.25 871.22 1465.19 875.17 1465.25 877.975C1457.93 887.728 1442.74 890.969 1431.4 893.21C1428.57 896.072 1428.1 897.087 1424.67 897.168C1417.13 890.01 1434.95 850.239 1440.09 841.839L1442.13 842.821ZM1449.16 872.002C1445.27 874.968 1440.68 878.99 1438.91 883.682L1439.25 885.303C1441.53 886.262 1443.38 885.35 1445.9 884.633C1450.27 883.166 1457.05 880.175 1457.57 874.896C1455.4 871.704 1452.79 872.163 1449.16 872.002ZM1439.24 874.734C1439.23 874.741 1439.21 874.749 1439.2 874.756L1439.21 874.687L1439.24 874.734Z" fill="#5400FF"/>
<path d="M465.893 387.029C469.689 386.768 478.402 387.763 478.558 392.895C478.872 403.231 465.582 410.098 458.296 415.189C457.713 415.596 451.331 416.758 450.269 416.949C427.237 417.815 433.008 404.574 446.672 395.123C452.845 390.853 458.79 388.977 465.893 387.029ZM468.435 390.9C461.299 393.971 442.776 400.297 441.017 408.942C442.159 410.998 443.124 411.924 445.756 412.215C454.281 411.971 473.751 406.157 473.466 395.619C472.519 393.914 470.369 391.419 468.435 390.9Z" fill="#5400FF"/>
<path d="M808.038 865.207L810.658 866.351C810.965 866.883 811.271 867.407 811.577 867.939C808.393 883.763 797.483 902.391 794.342 918.005C804.194 908.017 813.706 900.336 821.679 888.14C822.63 886.681 824.468 885.584 826.137 885.149L827.692 886.173C829.474 891.678 820.3 900.368 818.14 907.115C816.35 912.709 816.148 913.749 815.253 919.553L815.906 921.39C820.405 924.784 823.178 920.858 829.99 920.117C830.022 921.906 828.313 923.567 827.12 924.873C822.662 929.741 815.826 931.426 811.166 925.703C807.829 921.6 809.038 917.175 809.691 912.427C805.793 915.49 795.944 921.616 791.453 923.607L789.889 922.64C785.784 914.007 796.39 894.878 799.226 885.77C801.647 877.991 803.041 871.704 808.038 865.207Z" fill="#5400FF"/>
<path d="M618.033 495.522C620.816 498.47 619.516 498.414 620.536 501.437C625.741 516.853 613.974 555.376 594.951 557.292C592.502 557.563 590.052 556.787 588.205 555.155C584.856 552.182 581.714 545.177 585.866 541.764C588.36 542.013 587.501 541.843 589.746 543.417C591.254 546.225 591.218 550.327 591.438 553.607C596.858 551.614 597.975 551.132 602.378 547.362C613.895 534.501 616.383 524.41 615.84 507.448C611.569 510.833 599.189 521.039 593.9 520.729C590.515 520.529 590.079 522.05 586.188 523.016C584.017 521.596 584.762 522.352 583.455 519.905C583.556 510.643 604.816 499.566 613.173 499.354C614.613 499.317 616.811 496.675 618.033 495.522ZM605.556 506.032C601.476 508.413 592.215 513.194 590.167 517.192L591.298 517.537L593.244 516.447C597.809 515.076 606.522 511.697 608.075 506.616C606.727 506.161 606.938 506.11 605.556 506.032Z" fill="#5400FF"/>
<path d="M1602.98 731.467C1605.08 731.843 1608.06 733.881 1609.37 735.58C1627.04 758.578 1621.9 795.161 1602.36 815.238C1592.15 825.733 1577.07 830.287 1563.73 830.118C1562.93 830.045 1561.32 829.513 1560.47 829.271L1560.2 828.546C1560.32 828.425 1580.43 822.452 1583.29 821.098C1605.3 810.683 1612.1 790.019 1612.82 767.747C1613.24 754.807 1600.26 738.084 1602.98 731.467Z" fill="#5400FF"/>
<path d="M1391.85 864.046C1396.21 863.901 1402.41 867.076 1402.91 871.437C1404.81 888.397 1385.47 895.58 1373.85 898.756C1348.44 893.71 1382.45 867.585 1391.85 864.046ZM1389.87 869.753C1387.58 876.782 1372.6 881.143 1371.39 889.913C1373.36 892.919 1375.37 892.073 1378.63 891.541C1385.12 889.268 1399.13 880.49 1396.78 872.405C1394.27 869.971 1393.42 869.753 1389.87 869.753Z" fill="#5400FF"/>
<path d="M111.922 254.23C118.008 256.109 116.121 259.968 113.754 264.588C103.75 284.113 92.572 305.799 79.7418 323.446C72.1106 333.942 57.6734 350.21 44.1106 348.926C35.6655 348.126 29.3967 332.806 30.8996 325.435C31.7459 322.908 33.3658 317.699 35.4064 316.25C37.4955 318.657 36.5787 331.13 36.4618 334.79C38.8702 339.71 43.3169 342.481 47.7066 345.637C72.6117 334.082 90.1946 295.445 103.326 272.608C106.189 267.631 108.06 258.226 111.922 254.23Z" fill="#5400FF"/>
<path d="M424.225 661.764C425.838 663.089 425.909 663.125 426.614 665.038C424.55 677.064 405.726 687.764 409.4 697.631C415.131 701.573 425.052 695.803 430.198 697.83L430.059 699.047C424.485 703.607 412.759 705.069 407.008 701.286C403.425 698.928 404.395 698.93 403.187 695.381C401.556 695.916 400.258 696.224 398.586 696.617L398.027 695.665C395.953 700.392 381.084 710.896 375.565 704.598C374.592 696.443 394.605 682.773 401.148 678.687L407.628 680.019C412.382 669.807 414.973 667.827 424.225 661.764ZM399.668 685.045C394.755 688.748 389.604 693.143 385.861 698.05C386.101 699.341 385.785 698.973 386.503 699.744C391.052 699.137 397.358 692.359 400.225 688.861C400.788 686.265 400.952 687.282 399.668 685.045Z" fill="#5400FF"/>
<path d="M433.378 274.621C435.564 274.827 435.708 274.773 437.384 276.069L437.469 277.722C429.753 288.347 404.988 290.086 402.642 306.124C399.732 326.009 404.722 319.762 417.353 321.702C417.115 323.601 416.998 323.147 415.285 324.871C408.393 327.361 399.801 323.898 396.031 317.567C396.58 313.746 399.636 303.51 398.472 301.681C384.697 301.759 377.257 316.408 373.163 327.475L373.307 330.153L375.286 331.579L375.295 332.917C372.607 334.53 373.831 334.135 370.455 334.17C367.863 332.723 368.691 333.603 367.425 330.748C367.36 322.061 388.728 281.429 397.393 277.808C398.614 280.443 390.774 291.477 389.305 296.307L389.969 297.372C396.679 297.867 426.512 279.169 433.378 274.621Z" fill="#5400FF"/>
<path d="M1007.44 297.9C1009.92 299.286 1009.21 298.446 1010.16 300.998C1009.8 306.589 1003.36 314.785 1001.3 320.236C996.792 332.152 994.26 345.266 989.504 357.03C987.303 362.122 983.861 366.742 980.572 371.02C975.928 377.045 960.74 373.126 962.732 364.477C963.215 362.359 963.828 359.713 965.561 358.294C968.23 361.484 965.231 363.843 969.85 369.191C978.17 372.158 984.651 354.532 986.763 348.309C989.206 339.53 991.874 331.609 994.792 323.004C990.076 325.942 979.717 333.721 975.34 328.558C972.752 320.419 992.858 304.209 999.976 302.189L1000.98 302.844C999.549 306.55 986.868 316.728 981.225 325.675C1002.04 315.956 997.864 306.831 1007.44 297.9Z" fill="#5400FF"/>
<path d="M821.47 387.333C822.784 388.206 822.187 387.672 822.921 389.33L821.792 390.843C816.246 391.754 805.423 405.086 800.508 410.095C809.555 406.653 814.335 403.218 824.718 401.356L824.968 402.118C820.18 406.765 806.918 414.266 800.17 413.235C799.437 412.7 797.023 410.896 796.313 410.967C788.056 411.803 782.353 414.54 773.916 413.199C772.034 411.341 772.256 409.808 771.594 406.808C767.032 405.292 758.899 420.633 750.875 421.103C748.728 419.008 749.345 419.484 748.587 416.154C749.305 411.371 753.097 393.493 757.954 392.365C760.078 397.127 756.304 408.493 754.915 413.714C758.713 409.956 762.396 406.713 766.021 402.653C769.086 399.219 776.175 388.829 780.278 387.948C782.877 391.775 777.52 401.555 777.522 408.11C781.03 410.006 792.46 408.214 796.846 407.749C801.625 400.387 812.392 387.412 821.47 387.333Z" fill="#5400FF"/>
<path d="M249.637 261.664C251.736 261.87 251.638 261.9 253.499 262.967C254.278 266.456 251.973 265.403 250.008 269.457C245.207 279.364 240.665 289.453 236.555 299.643C248.317 296.151 258.857 293.692 271.092 294.23C257.002 299.413 248.595 302.031 233.94 305.304C230.176 310.018 222.224 322.957 223.995 328.817C222.77 332.988 220.891 336.476 217.829 339.556C215.143 340.219 215.924 340.452 213.857 339.514C210.913 333.121 221.591 314.404 224.932 308.294C220.388 309.429 212.31 312.026 208.231 309.241C209.358 304.306 225.059 304.323 229.465 298.272L229.765 297.855C237.242 287.604 239.97 271.276 249.637 261.664Z" fill="#5400FF"/>
<path d="M479.054 478.342C483.177 479.968 482.762 478.581 484.535 481.345C485.4 488.968 475.31 497.896 473.701 505.497C472.598 510.704 470.071 516.515 471.189 521.953C471.506 523.494 475.168 525.194 476.534 525.918L476.24 527.049C473.131 527.455 468.366 526.142 465.107 525.442C465.134 520.912 464.878 516.539 464.645 512.022C456.222 520.844 435.566 533.859 423.458 527.622C421.526 524.691 422.1 525.379 421.894 521.49C424.938 514.754 435.509 503.87 443.854 505.63L444.236 506.842C441.343 511.714 427.345 519.335 428.604 524.195C439.716 525.772 463.174 510.404 468.048 500.445C472.718 490.904 470.647 487.579 479.054 478.342Z" fill="#5400FF"/>
<path d="M1469.08 254.938C1471.6 255.566 1472.31 255.632 1474.37 257.174L1474.1 258.327L1470.33 259.89C1469.16 263.165 1466.83 274.744 1464.97 280.556C1469.66 281.087 1484.74 283.268 1488.62 282.536C1489.85 281.337 1490.58 280.298 1492.23 280.028C1498.07 284.889 1491.48 294.888 1491.24 301.08C1491.19 302.452 1492.95 308.381 1493.41 310.011L1491.47 311.638C1488.78 312.03 1488.42 312.267 1486.13 311.093C1482.17 306.042 1488.21 296.189 1486.63 288.242C1484.82 286.575 1484.1 287.107 1481.1 286.992C1473.97 287.038 1470.71 286.958 1463.72 285.842C1461.01 294.939 1460.91 299.657 1460.84 308.896C1463.43 312.096 1463.74 311.428 1463.98 314.862L1462.85 316.114C1450.14 314.855 1456.3 294.43 1456.66 286.953C1454.4 284.382 1452 285.691 1447.83 282.966C1446.95 280.757 1446.93 281.811 1447.8 279.704C1450.76 278.567 1455.82 278.914 1459.21 278.936C1460.83 273.686 1463.58 263.772 1466.9 259.273C1468.49 257.121 1468.15 257.678 1469.08 254.938Z" fill="#5400FF"/>
<path d="M368.617 654.285C371.099 655.843 371.648 655.592 372.589 657.947C367.727 672.086 358.344 687.134 351.212 700.906C356.714 699.086 366.128 693.895 370.776 693.903C369.745 698.358 356.598 705.036 351.893 703.319C352.019 703.365 349.713 704.986 347.727 705.085C341.543 698.443 357.468 677.527 361.673 671.369L363.086 668.433L362.516 667.488C354.416 670.157 331.733 696.999 323.558 698.817C322.16 697.622 322.571 698.227 322.369 695.889C323.809 692.477 330.687 679.062 333.166 676.579C335.824 676.902 333.165 679.866 336.228 682.292C342.359 678.186 360.206 661.025 368.617 654.285Z" fill="#5400FF"/>
<path d="M211.5 487.225C213.027 487.876 214.19 488.9 215.516 489.912C216.061 493.783 201.314 508.616 200.854 516.98C200.78 518.33 201.1 518.393 201.994 519.393C204.796 519.612 218.163 514.081 222.451 512.671C201.665 538.277 195.725 512.435 188.923 513.714L188.629 516.507C184.377 521.849 168.599 529.345 163.448 521.099C162.824 518.208 164.083 516.054 165.242 513.341C172.91 505.32 185.485 492.157 197.919 494.246L198.61 495.296L197.96 496.552C186.195 499.133 174.384 510.49 168.165 520.596C182.424 516.546 191.592 509.328 201.39 498.446C205.558 493.816 206.419 491.744 211.5 487.225Z" fill="#5400FF"/>
<path d="M1298.16 748.532C1300.61 749.18 1299.59 748.586 1301.37 750.303C1300.96 756.243 1279.57 772.443 1281.15 788.906C1284.6 794.044 1287.84 788.477 1293.12 789.916L1293.73 791.277C1291.3 795.69 1285.03 795.765 1280.74 796.014C1277.75 796.186 1276.97 794.397 1274.93 792.396C1274.79 779.213 1275.96 777.218 1282.7 765.776L1273.48 768.358L1272.5 768.641C1265.26 770.672 1251.57 773.35 1244.89 769.585C1238.99 761.762 1256.18 747.243 1260.7 751.229C1259.09 756.359 1248.46 761.071 1252.01 765.941C1252.49 766.124 1253.67 766.568 1254.2 766.488C1269.89 764.148 1286.59 759.767 1298.16 748.532Z" fill="#5400FF"/>
<path d="M296.951 488.869C299.493 488.942 300.043 489.5 300.888 491.592C299.456 503.773 281.497 520.056 269.665 522.426C266.903 522.98 261.716 524.362 259.23 522.905C256.615 517.582 256.001 518.992 251.371 521.635C246.232 524.571 237.121 529.223 232.754 523.081C231.451 517.087 238.558 501.69 244.054 499.496L245.594 500.681L245.742 503.258C243.799 507.449 239.709 514.75 241.161 519.024C248.685 522.04 264.982 499.622 268.615 498.611L269.971 499.958C271.378 505.378 265.356 509.568 263.435 515.756L264.225 516.914C276.112 518.576 291.781 502.609 294.395 491.605C294.617 490.669 296.161 489.591 296.951 488.869Z" fill="#5400FF"/>
<path d="M704.328 888.519C706.166 888.922 706.088 888.978 707.406 890.195C709.032 894.838 704.574 904.253 702.725 909.598C711.335 907.083 719.65 903.649 727.529 899.36C730.883 897.579 739.824 891.3 743.097 892.863L742.958 893.742C736.088 903.608 721.271 909.195 710.417 913.725C692.394 920.649 698.128 931.99 689.815 936.859C686.057 934.989 685.144 926.952 684.359 923.019C682.745 921.665 681.147 920.286 679.565 918.892C678.625 916.248 678.606 917.425 679.96 914.45C685.909 910.42 684.88 916.401 688.766 915.571C699.132 913.362 697.898 906.462 698.136 898.627C698.178 897.248 703.085 890.219 704.328 888.519Z" fill="#5400FF"/>
<path d="M773.235 275.167C774.198 275.588 777.402 277.108 776.926 278.542C774.214 286.712 769.774 305.374 772.278 313.582C774.445 315.765 777.864 316.589 780.894 317.639L781.33 318.672C779.777 319.659 773.816 321.321 772.218 320.919C761.729 318.281 767.179 295.009 768.161 289.165C759.823 297.34 753.538 308.338 745.155 316.257C741.638 318.616 741.279 319.565 737.845 319.085L736.905 317.424C737.04 311.004 752.121 281.85 757.353 279.103L758.292 280.117C758.771 284.25 750.138 300.975 747.967 305.74C753.471 298.411 766.901 282.566 773.235 275.167Z" fill="#5400FF"/>
<path d="M1542.45 838.565C1555.05 840.137 1540.86 853.865 1542.41 857.089C1545.1 862.643 1560.51 853.526 1566.77 857.581L1566.48 858.822C1559.78 863.36 1548.8 862.804 1542.26 865.674C1533.54 869.487 1532.37 889.8 1531.34 898.288C1530.91 901.835 1532.43 903.447 1531.05 907.904C1516.93 907.05 1529.07 876.306 1531.63 867.907C1524.64 868.358 1512.15 872.106 1508.26 869.471L1508.15 868.318C1511.97 863.965 1530.07 861.232 1535.92 860.507C1538.83 852.615 1542.11 846.747 1542.45 838.565Z" fill="#5400FF"/>
<path d="M311.32 668.735C310.98 669.851 310.623 670.961 310.247 672.065C307.816 679.209 299.351 692.559 293.431 697.463C291.6 698.979 286.069 701.704 283.676 702.881C281.112 703.666 280.527 703.98 277.973 703.315C268.606 695.054 291.453 673.5 297.558 667.204C298.505 666.227 301.306 665.382 302.7 665.014L311.32 668.735ZM304.534 673.099C294.227 677.737 287.182 684.278 282.352 694.834L282.538 696.989C289.727 693.402 305.705 681.981 304.534 673.099Z" fill="#5400FF"/>
<path d="M461.089 281.185C463.9 281.192 464.74 281.073 467.32 282.305C472.631 291.519 450.71 304.107 443.523 307.316C437.527 309.994 434.295 308.694 435.179 317.504C439.494 322.343 457.634 313.401 463.182 314.911L463.117 315.917L460.849 317.389C451.786 321.913 421.541 330.921 430.508 309.923L430.885 309.052C429.57 307.023 429.238 306.635 428.82 304.275C430.046 302.073 429.226 302.922 431.351 301.612L433.161 302.563C435.985 302.336 446.646 290.523 450.371 288.002C454.002 285.544 457.231 283.461 461.089 281.185ZM453.435 288.559C453.668 293.67 451.915 291.99 449.108 297.553C451.175 297.443 451.296 297.228 453.071 296.003C456.9 293.245 458.593 291.942 461.935 288.654C459.077 288.809 456.193 289.164 453.435 288.559Z" fill="#5400FF"/>
<path d="M1613.54 844.289L1616.8 843.999C1618.91 845.377 1618.29 844.531 1618.96 847.102C1616.26 851.06 1613.39 846.828 1609.34 847.4C1609.09 847.44 1608.71 850.721 1607.69 851.044C1596.79 854.518 1589.76 855.542 1579.51 860.854C1585.97 866.416 1603.44 872.211 1603.96 880.611C1601.6 889.244 1582.06 888.107 1575.04 887.366C1568.94 886.439 1564.29 885.89 1558.4 883.932C1573.44 880.796 1577 886.286 1595.92 879.861C1590.22 875.476 1576.2 869.986 1574.09 862.861C1571.7 854.735 1589.91 850.076 1595.38 848.456C1601.2 846.723 1607.36 844.748 1613.54 844.289Z" fill="#5400FF"/>
<path d="M327.967 484.839L330.135 485.878C332.441 491.097 325.021 511.5 322.819 517.305C331.213 511.565 350.146 491.457 357.19 491.691C360.807 494.705 353.361 526.224 351.087 528.984L348.792 527.099C346.719 521.05 350.564 507.817 352.022 501.053C344.899 505.702 322.623 527.658 316.001 523.487C312.785 514.541 326.58 499.251 326.223 491.246C326.069 487.784 325.697 488.23 327.967 484.839Z" fill="#5400FF"/>
<path d="M1140.09 265.696C1142.21 266.521 1144.45 267.035 1145.32 268.688C1137.87 273.631 1140.04 276.265 1136.61 286.864C1145.78 286.821 1155.69 285.922 1163.74 290.425C1161.98 296.61 1140.87 288.438 1136.13 293.641C1130.75 299.556 1126.97 321.808 1126.2 329.241L1133.76 321.729C1135.79 319.896 1135.24 319.764 1137.25 319.802C1137.68 323.207 1129.07 335.665 1123 333.394C1115.55 323.452 1129.1 300.293 1127.11 294.631C1123.12 292.983 1120.12 295.429 1115.48 294.003L1115.25 292.691C1117.55 289.796 1125.94 289.032 1129.82 288.416C1132.48 280.693 1135.34 272.391 1140.09 265.696Z" fill="#5400FF"/>
<path d="M74.323 669.084C77.2815 668.823 78.2292 669.164 79.3953 671.805C78.3262 676.118 75.6955 675.312 71.9686 676.372C66.8913 690.691 63.5137 701.197 48.3777 707.485C39.6114 706.631 38.9053 701.089 43.0994 694.222C50.5267 682.061 60.4728 672.887 74.323 669.084ZM56.9969 685.904C53.6817 688.774 47.0989 694.941 47.8875 699.774L48.7703 700.56C56.2336 696.923 56.3647 694.788 57.5281 686.847L56.9969 685.904Z" fill="#5400FF"/>
<path d="M1106.99 858.613C1107.92 855.808 1108.37 852.495 1111.56 852.269L1113.31 854.05C1117.94 865.545 1090.42 878.684 1082.72 882.328C1072.66 905.124 1090.47 895.443 1096.96 898.675L1096.88 900.029C1091.52 906.357 1086.34 906.905 1079.16 902.746C1074.6 900.094 1074.07 896.837 1072.84 892.049C1077.1 878.821 1084.51 870.14 1094.77 861.096C1097.29 858.879 1101.52 855.316 1104.91 855.606L1106.1 857.444L1106.99 858.613Z" fill="#5400FF"/>
<path d="M1101.5 577.776L1102.53 579.256C1102.56 583.164 1103.05 587.37 1103.43 591.286C1112.31 589.337 1144.18 584.058 1152.13 587.059L1151.32 588.853C1144.26 593.117 1132.15 592.796 1123.4 593.497C1128.65 599.807 1132 603.649 1137.92 609.286C1140.42 610.762 1140.79 610.468 1142.14 612.812L1141.22 614.135C1131.27 616.526 1121.54 601.022 1117.72 593.774C1095.97 598.069 1110.14 599.431 1104.25 613.349L1102.84 613.666C1101.25 612.454 1099.52 610.31 1099.15 608.349C1096.92 596.376 1095.34 588.859 1101.5 577.776Z" fill="#5400FF"/>
<path d="M809.24 29.7549C814.73 29.8898 815.439 34.0245 815.391 37.4189C815.197 50.3955 808.176 64.3698 794.756 66.2598C792.293 66.6066 789.225 86.9722 788.939 92.5986C794.981 93.1202 803.838 93.3965 809.32 95.9219C811.4 96.8835 812.561 98.6537 813.117 101.042C818.043 122.152 822.018 146.199 820.615 167.881C820.341 172.017 816.73 181.091 816.222 185.419C815.617 190.677 816.874 194.732 814.439 199.285C812.134 201.024 813.166 200.75 810.578 200.546C808.273 199.035 807.773 198.953 806.862 196.522C818.358 179.532 814.811 118.875 804.879 100.022C803.673 97.7332 790.603 99.0355 787.418 99.1436C786.938 103.813 786.9 108.648 783.594 112.09C781.042 113.069 782.102 113.02 779.574 112.401C777.609 109.367 778.975 105.516 777.62 100.648C776.802 99.7553 776.013 98.438 774.492 98.5098C760.556 99.1683 744.63 101.671 731.173 104.771C728.702 105.342 728.985 111.132 725.887 113.7C718.826 113.301 718.814 99.0283 699.355 114.275C693.084 119.712 688.474 123.898 682.698 129.83C684.169 133.612 684.465 134.557 685.082 138.555L683.612 139.787C681.096 137.893 678.551 132.341 677.113 129.494C684.827 115.315 703.123 104.374 718.236 100.074C716.202 88.5932 713.484 76.8764 711.28 65.3389C683.966 64.8134 704.341 37.4748 718.208 49.2314C721.499 52.0214 724.665 57.5955 725.054 61.9658C723.168 65.1441 722.709 62.195 719.604 65.3066C720.275 70.0876 722.098 75.1989 723.122 80.0547C724.572 86.9299 724.941 93.09 725.307 100.086C740.556 96.777 761.675 94.7519 777.062 92.4336C780.823 91.8664 784.836 63.5681 786.777 59.1758C788.349 55.6204 795.971 37.4101 802.59 43.8066L802.549 45.5078C800.801 45.3136 800.696 45.2158 798.916 45.6035C797.274 48.8152 794.479 56.0807 797.711 58.7031C805.544 58.2206 810.868 40.9042 808.055 35.9268C805.644 35.9647 802.32 39.2313 799.272 40.9453L797.71 40.1934L797.272 38.6973C799.144 34.9427 805.568 31.7387 809.24 29.7549ZM709.329 50.6494C707.327 53.6967 707.354 52.7801 707.104 56.124C709.491 59.586 711.696 59.1096 715.658 59.1631C716.893 57.0814 717.011 56.9953 717.091 54.6436C715.068 51.7 712.986 51.5981 709.329 50.6494Z" fill="#5400FF"/>
<path d="M192.201 367.833C193.513 368.386 193.046 368.155 194.093 369.26C193.043 382.715 186.013 391.271 185.491 398.262L186.158 398.856C188.19 397.66 190.232 396.48 192.283 395.317C192.635 397.596 181.671 414.643 179.738 418.167C185.801 414.735 194.762 411.174 197.635 405.473C197.721 402.281 196.325 399.809 195.029 396.874L195.625 395.337C197.313 394.587 198.293 395.025 200.124 395.411C211.39 405.888 197.086 415.268 187.975 418.839C174.712 424.039 166.742 426.292 174.227 409.244C180.454 395.059 184.959 381.607 192.201 367.833Z" fill="#5400FF"/>
<path d="M985.989 415.563C991.277 411.591 1008.46 392.274 1011.13 391.293L1012.69 392.337C1016.05 400.289 998.097 411.942 1009.34 419.46C1010.76 420.406 1019.69 420.025 1022.09 419.992C1023.41 420.797 1022.85 420.256 1023.58 421.881C1019.65 426.91 1003.22 424.366 1000.14 419.822C999.573 416.223 1000.97 411.538 1001.79 407.865C997.299 412.37 986.166 425.134 979.516 422.26C976.492 416.336 986.98 396.428 990.221 390.452C992.083 391.392 992.124 391.586 993.397 393.311C994.268 397.865 988.101 409.605 985.989 415.563Z" fill="#5400FF"/>
<path d="M105.799 668.72C108.869 669.118 108.555 668.591 110.52 670.268C110.29 672.677 107.165 674.992 105.298 677.262C100.445 683.162 97.6807 688.371 94.9043 695.385C100.729 689.165 112.177 676.617 119.718 673.63C124.037 674.04 121.228 681.572 122.153 685.778C123.852 693.505 133.193 691.074 131.003 698.493C118.197 696.496 118.823 695.855 115.272 683.628C109.555 688.663 93.6394 704.88 86.6332 702.362L85.9512 700.394C86.9242 691.929 99.5614 674.07 105.799 668.72Z" fill="#5400FF"/>
<path d="M945.722 766.128C954.743 770.677 939.361 782.445 937.975 788.293C937.08 792.076 940.764 794.803 940.546 798.736C938.2 800.897 938.999 800.872 936.661 800.781C934.194 798.564 932.864 794.407 931.558 791.231C924.625 797.931 911.67 806.693 901.521 802.923C896.498 797.225 907.051 789.39 911.227 785.637C914.475 783.248 924.488 777.221 928.309 777.777C927.245 783.169 910.606 791.244 905.922 798.668L906.293 799.804C914.798 801.663 927.97 788.381 933.162 782.228C937.475 777.116 939.635 771.49 945.069 766.695L945.722 766.128Z" fill="#5400FF"/>
<path d="M998.444 835.325C1004.91 837.727 1009.48 848.916 1006.8 854.824C1004.22 854.405 1006.07 852.857 1005.36 852.027C1003.23 849.544 1000.57 846.473 998.46 844.031C994.526 849.947 988.859 864.53 985.892 871.72C989.89 869.946 995.856 866.73 1000.1 868.874C997.984 873.517 988.286 875.911 983.707 879.813C978.572 887.366 979.709 901.391 975.807 904.68C975.557 903.608 975.307 902.536 974.928 901.553C969.592 887.922 988.867 843.902 998.444 835.325Z" fill="#5400FF"/>
<path d="M1266.8 392.973L1268.63 393.434C1272.96 399.177 1262.28 407.229 1265.55 415.367C1269.38 424.933 1281.65 416.672 1286.97 418.679L1287.22 419.953C1276.48 430.791 1265.21 423.083 1257 414.146C1252.42 414.333 1245.17 417.617 1237.15 418.352C1234.51 418.158 1233.05 417.707 1231.32 415.702C1231.05 414.076 1230.73 412.635 1232.24 411.209C1236.46 407.219 1243.44 401.924 1249.32 401.197C1252.3 400.828 1252.65 400.356 1254.76 398.533C1257.45 398.547 1257.38 398.082 1259.02 399.381C1257.32 404.264 1243.19 408.697 1241.53 412.131C1254.06 415.655 1260.39 399.547 1266.25 393.529L1266.8 392.973Z" fill="#5400FF"/>
<path d="M727.159 130.658C736.271 131.577 745.944 138.892 739.809 149.14C737.046 153.754 729.992 153.999 724.923 154.542C722.486 154.984 717.879 154.949 715.884 153.734C701.194 144.788 721.393 133.256 727.159 130.658Z" fill="#5400FF"/>
<path d="M1566.08 268.893C1567.43 269.605 1568.09 270.205 1569.25 271.148C1570.49 274.374 1565.62 286.563 1564.5 293.132C1572.75 287.774 1581.53 276.086 1589.67 275.47C1592.18 276.45 1591.36 275.768 1592.77 278.007C1592.84 286.054 1586.52 294.247 1583.77 301.782C1582.29 305.819 1582.88 317.027 1579.37 318.425C1577.78 317.2 1577.57 315.436 1576.96 313.402C1576.46 303.096 1588.32 286.025 1585.81 280.077C1578.59 281.567 1567.13 305.833 1558.48 302.759C1553.96 295.402 1561.89 276.192 1566.08 268.893Z" fill="#5400FF"/>
<path d="M602.741 386.645C604.627 386.837 604.626 386.951 606.218 387.843C608.867 395.379 598.972 400.076 598.273 409.046C597.476 419.256 605.764 416.645 608.967 420.926C606.855 422.82 598.945 421.867 596.56 420.14C591.744 416.653 591.454 414.354 590.235 408.871C580.287 411.525 573.424 413.356 562.938 412.363C559.316 403.604 565.879 400.093 572.797 395.185C575.448 393.304 581.616 391.755 583.291 395.653C580.039 399.863 571.505 401.408 568.786 406.127L569.214 407.424L570.615 408.069C579.041 407.893 591.334 404.71 595.566 396.968C597.781 392.914 598.717 390.464 602.107 387.236L602.741 386.645Z" fill="#5400FF"/>
<path d="M405.08 496.476C407.779 496.887 409.018 496.788 410.989 498.624C414.373 507.35 401.533 513.342 400.973 520.69C403.255 526.331 407.029 521.987 412.47 525.018L412.244 526.199C404.159 530.771 400.317 525.197 393.219 521.003C385.194 522.785 371.847 527.868 372 515.54C376.168 508.567 387.551 499.239 396.019 503.967L396.298 505.291C387.277 509.981 383.351 510.082 376.561 518.209C382.789 517.7 386.6 517.28 392.734 516.092C396.288 510.817 400.225 499.334 405.08 496.476Z" fill="#5400FF"/>
<path d="M718.803 477.875C719.236 478.107 720.82 479.429 721.308 479.818C723.994 491.546 698.431 507.278 689.936 512.183C681.346 511.104 674.817 511.564 675.692 500.442C676.013 496.363 676.228 491.934 676.526 487.822C677.838 484.302 678.327 483.216 680.257 480.002L682.177 479.919C683.751 485.85 679.727 501.801 683.725 507.377C686.527 507.752 700.198 499.527 700.792 497.426C704.135 485.596 707.728 484.307 718.803 477.875Z" fill="#5400FF"/>
<path d="M1086.3 387.276C1088.02 387.651 1088.29 387.847 1089.8 388.641C1093.17 395.941 1084.47 403.464 1087.99 409.962C1090.69 406.084 1107.33 388.508 1111.54 390.786C1111.81 393.219 1108.44 405.743 1107.89 411.177C1111.9 420.325 1112.81 418.641 1121.95 419.72C1122.7 421.183 1122.54 420.392 1122.14 422.199C1119.62 423.433 1119.17 423.549 1116.38 424.014C1100.4 418.391 1103.7 421.417 1102.57 405.216L1101.44 404.484C1095.6 406.906 1086.16 420.76 1081.08 417.468C1078.25 410.815 1083.87 394.124 1086.3 387.276Z" fill="#5400FF"/>
<path d="M925.826 368.645C930.203 369.749 937.685 375.33 937.814 380.432L936.322 381.059C933.243 380.508 930.824 377.572 928.462 375.287C923.512 384.205 921.416 391.417 918.216 400.959C922.747 400.504 936.266 398.349 939.144 402.301C935.959 405.519 924.415 405.755 920.006 405.243L918.74 405.065C913.355 409.417 913.976 424.168 909.63 429.593L908.179 429.601C903.278 425.229 906.946 419.676 908.437 414.116C910.211 407.487 910.614 409.017 908.042 402.977C909.582 400.027 911.267 401.989 912.831 398.44C916.765 389.517 919.095 375.825 925.826 368.645Z" fill="#5400FF"/>
<path d="M906.704 875.766L908.284 875.218C910.557 875.533 910.613 875.573 912.347 877.169C912.919 876 887.203 891.469 882.898 895.362C890.718 897.136 907.179 895.814 909.461 905.374C908.727 913.62 895.442 920.512 888.694 923.293C886.526 924.188 882.519 924.123 880.125 924.091C876.731 923.333 877.65 924.043 876.118 921.761C877.464 919.504 897.917 917.707 901.996 906.236C899.013 901.045 884.091 903.221 879.947 899.175C871.273 890.679 899.803 876.742 905.043 877.395L906.704 875.766Z" fill="#5400FF"/>
<path d="M680.637 142.092C688.95 146.206 683.9 158.192 685.033 165.64C685.63 169.565 694.993 167.167 695.8 173.682C694.25 174.868 693.852 175.177 692.56 176.624C692.858 180.613 692.631 182.07 692.076 186.074C695.838 193.059 696.882 196.304 705.652 197.025C710.174 197.395 710.002 197.328 711.013 201.463C708.862 203.477 700.491 203.724 696.767 204.223C694.554 201.643 692.176 198.825 690.362 195.955C680.171 179.974 676.679 160.627 680.637 142.092Z" fill="#5400FF"/>
<path d="M803.825 195.709C805.199 197.165 804.761 197.039 805.056 199.535C800.43 204.011 766.101 204.622 758.926 203.976C755.276 203.647 752.501 200.459 748.002 201.057C737.763 202.419 726.178 202.105 715.851 202.084C715.508 202.043 714.144 201.442 713.73 201.272C712.861 198.896 712.869 200.054 713.682 197.68C720.847 192.073 761.063 198.737 769.611 198.778C779.296 198.823 793.119 196.197 803.825 195.709Z" fill="#5400FF"/>
<path d="M1394.31 762.181C1394.81 762.545 1396 763.763 1396.51 764.258C1397.51 770.401 1391.65 774.828 1390.19 780.715L1390.95 781.817C1397.4 779.165 1406.38 762.887 1414.27 766.811C1416.64 771.35 1413.91 775.751 1411.13 779.559C1405.79 786.867 1408.58 785.146 1408.11 791.938C1406.85 793.983 1404.12 794.611 1401.7 795.557C1395.19 786.708 1403.79 782.12 1403.95 779.552C1399.59 780.5 1396.59 786.911 1391.96 787.369L1390.37 784.642L1389.36 784.823C1388.95 788.661 1389.24 792.745 1385.92 794.985C1382.78 794.638 1381.72 793.588 1381.06 790.766C1387.11 776.528 1384.53 775.603 1394.31 762.181Z" fill="#5400FF"/>
<path d="M812.891 277.455C814.786 277.098 814.697 277.146 816.559 277.751L816.575 279.181C814.278 282.202 804.575 284.79 799.55 288.088C806.062 294.904 838.35 286.692 843.219 308.286C835.327 316.985 827.991 319.32 816.43 317.322C815.165 315.603 814.81 315.399 814.786 313.384C817.398 312.601 820.735 313.798 823.718 314.432C828.111 312.458 834.198 310.394 836.447 306.22C836.431 294.456 796.57 296.821 790.468 289.322C789.669 280.849 806.982 278.779 812.891 277.455Z" fill="#5400FF"/>
<path d="M1147.82 490.273C1149.1 490.452 1149.53 491.094 1150.48 491.999C1150.06 498.341 1124.32 500.042 1119.03 508.584C1119.66 514.865 1143.39 511.714 1149.52 519.683C1149.48 526.48 1138.16 527.759 1132.99 528.181C1130.06 527.784 1127.11 527.005 1124.22 526.321L1124.16 525.641C1127.92 524.396 1135.96 522.866 1138.45 521.01C1135.1 515.89 1118.1 521.968 1112.22 511.227C1111.42 500.765 1139.79 491.72 1147.82 490.273Z" fill="#5400FF"/>
<path d="M1243.64 503.205C1246.16 504.385 1246.3 504.661 1247.08 507.044C1246.34 515.82 1231.58 521.586 1249.08 530.852C1252.55 528.358 1259.3 526.173 1263.18 528.457C1258.87 535.069 1245.05 531.865 1238.39 530.772C1236.17 530.409 1234.56 525.817 1233.56 523.726C1231.12 523.454 1221.86 528.052 1218.84 529.405C1214.37 530.063 1208.58 531.648 1207.29 525.94C1208.84 519.676 1226.38 510.399 1230.67 510.648L1231.62 512.844C1230.01 516.589 1220.39 519.563 1217.68 523.377C1229.55 526.615 1238.46 511.294 1243.64 503.205Z" fill="#5400FF"/>
<path d="M525.04 495.918C525.688 495.993 527.038 496.634 527.717 496.919L528.218 498.433C524.246 504.862 514.061 502.109 508.507 507.567L508.534 509.096C514.008 514.197 533.838 514.987 533.28 525.03C532.557 538.026 516.683 539.621 508.081 538.639L506.041 537.183L505.909 535.894C509.9 532.984 523.464 534.91 527.017 526.871C525.562 518.646 506.338 517.575 499.831 510.137C497.434 501.426 518.669 497.178 525.04 495.918Z" fill="#5400FF"/>
<path d="M596.474 591.427C599.559 592.583 602.172 592.335 604.454 593.423C606.439 596.663 605.972 602.464 606.21 606.937C612.3 612.764 616.598 612.548 619.667 615.116C617.373 616.25 616.45 615.963 613.912 615.786C606.207 611.819 604.059 606.343 598.938 602.543L595.843 603.269C593.397 604.93 592.813 606.592 591.138 608.066C586.804 611.883 577.887 617.013 572.201 617.225C569.734 616.261 570.592 616.926 569.045 614.547C568.076 601.615 593.547 596.569 596.474 591.427ZM598.849 595.032C592.576 598.236 577.746 604.774 575.482 610.918L576.149 611.691C582.186 609.641 597.673 603.044 599.816 596.509L598.849 595.032Z" fill="#5400FF"/>
<path d="M1325.81 353.382L1329.59 354.353C1333.76 360.535 1310.83 410.876 1319.11 420.688C1321 420.765 1322.61 420.723 1324.49 420.67L1324.88 421.815L1323.11 425.316C1320.49 424.934 1312.94 424.545 1312.34 423.195C1304.98 406.888 1323.01 368.241 1325.65 354.238L1325.81 353.382Z" fill="#5400FF"/>
<path d="M1441.68 764.09C1445.15 764.414 1444.07 763.853 1446.25 765.826C1447.74 771.569 1439.77 781.594 1438.18 789.141C1440.02 793.834 1447.19 788.099 1450.85 790.294C1450.64 791.619 1450.11 793.523 1448.87 794.107C1432.9 801.622 1430.03 795.447 1434.18 781.738C1435.35 779.296 1435.89 778.56 1436.02 775.821L1434.77 775.35C1428.09 778.114 1417.63 790.157 1411.52 788.641L1410.68 786.904C1412.89 780.629 1434.98 767.125 1441.68 764.09Z" fill="#5400FF"/>
<path d="M105.097 373.819C106.067 374.124 105.687 373.892 106.503 374.684C107.432 375.584 107.101 376.474 107.098 377.71C104.982 381.19 88.3657 389.188 82.9757 392.574C89.3435 392.734 112.821 392.123 112.076 402.258C108.544 408.114 97.3994 410.667 91.0905 412.352C88.7631 411.041 87.6208 410.587 87.337 407.951C90.2287 405.312 99.1987 406.202 103.228 401.459C100.593 396.636 85.9319 401.415 79.0935 394.883C76.516 386.624 98.5385 377.551 105.097 373.819Z" fill="#5400FF"/>
<path d="M781.656 133.743C787.311 134.075 786.796 135.983 790.853 138.799C791.85 139.491 793.398 137.759 796.636 140.353C797.193 144.668 791.744 148.813 789.42 152.231C787.431 155.155 784.15 156.086 780.847 157.201C774.251 154.315 773.42 161.34 766.598 155.345C763.102 146.35 774.828 137.532 781.656 133.743Z" fill="#5400FF"/>
<path d="M828.515 781.592C830.636 782.873 830.91 782.907 832.111 784.965C831.724 793.057 818.817 805.549 813.36 811.304C802.872 822.379 789.866 830.352 776.121 836.704C773.912 836.043 773.603 836.091 772.241 834.374L772.606 832.947C775.087 830.714 787.998 823.532 792.736 820.219C799.74 815.318 812.449 802.187 817.915 799.816C821.478 793.225 824.517 787.917 828.515 781.592Z" fill="#5400FF"/>
<path d="M64.6275 558.269L66.5458 559.3C68.3581 562.381 67.324 565.529 66.8035 569.442C67.4752 569.264 69.4269 568.943 69.9021 568.663C73.7008 566.421 94.3974 569.062 95.6864 572.218C90.4923 573.594 86.5769 572.365 81.5231 571.145C69.4716 574.546 64.676 576.155 61.0472 589.061C59.8636 593.973 58.2313 605.332 54.3192 607.836L52.9869 607.481C49.0036 601.412 55.2913 590.671 56.3842 583.235C54.583 581.468 53.0991 582.615 49.5713 581.222L49.4814 580.062C51.351 577.639 55.4959 575.689 58.3281 574.105C60.2316 568.865 62.1039 563.207 64.6275 558.269Z" fill="#5400FF"/>
<path d="M758.552 575.687C760.91 576.033 762.496 575.94 764.062 577.607C763.155 579.735 763.874 578.935 761.786 580.041C760.261 579.429 759.251 578.947 757.785 578.201C751.787 582.019 730.158 586.685 728.951 590.364C734.2 598.809 753.911 594.975 757.574 602.548C756.498 609.525 739.671 615.363 733.391 617.044C730.594 618.147 729.733 618.635 726.63 618.476L726.02 617.612C731.485 611.368 747.537 608.716 750.498 604.381C747.438 598.956 728.8 601.176 723.025 593.393C720.144 580.103 749.716 579.017 758.552 575.687Z" fill="#5400FF"/>
<path d="M728.254 388.932C736.175 391.56 724.465 403.281 729.3 412.324C735.746 416.173 741.138 409.28 745.758 410.565C744.341 414.427 739.097 418.679 734.667 418.274C728.272 417.69 728.721 419.681 723.814 414.898C723.111 412.982 722.721 406.693 722.51 404.3C721.565 405.136 720.612 405.962 719.652 406.78C714.277 411.365 710.122 414.351 702.269 413.727C700.005 412.478 700.659 413.275 699.875 410.704C701.03 406.271 706.036 403.664 709.831 400.696C714.928 396.71 715.073 397.153 720.688 398.034C723.418 396.633 726.368 391.66 728.254 388.932Z" fill="#5400FF"/>
<path d="M216.385 557.207C218.688 558.298 217.98 557.604 219.32 559.694C218.265 570.008 209.705 583.501 206.728 595.339C212.409 589.873 229.845 575.698 235.829 586.623C235.364 589.462 235.884 588.392 233.551 590.601C228.595 591.048 231.724 586.406 225.275 587.416C221.225 589.742 214.601 595.044 210.349 597.645C209.314 597.496 208.424 597.368 207.679 597.26C203.861 600.147 206.39 606.758 198.397 606.752L197.383 605.263C196.82 597.533 212.173 566.508 216.385 557.207Z" fill="#5400FF"/>
<path d="M1100.92 470.873C1103.3 470.795 1103.85 470.579 1105.81 471.722L1105.82 473.066C1102.03 475.7 1098.79 488.343 1097.29 493.145C1103.8 492.319 1110.23 490.902 1116.25 494.176L1116.18 495.183C1110.98 498.297 1099.79 497.816 1095.09 501.175C1094.46 504.091 1095.48 507.67 1096.08 510.712C1097.54 513.818 1098.64 514.934 1096.15 517.755C1088.31 518.021 1088.9 505.19 1088.91 500.032C1086.81 500.3 1084.71 500.554 1082.61 500.795C1079.92 499.702 1080.58 500.417 1079.3 498.255L1080.31 496.565C1082.88 494.459 1086.07 494.876 1089.51 494.822C1092.63 488.792 1095.1 478.822 1099.87 474.315C1100.8 473.439 1100.63 472.516 1100.92 470.873Z" fill="#5400FF"/>
<path d="M1353.41 859.177C1360.51 860.064 1367.75 868.915 1369.31 875.396L1368.6 876.427C1363.9 876.427 1356.79 868.552 1353.41 865.231C1343.64 871.881 1340.93 880.288 1336.54 891.001C1335.22 895.854 1332.63 905.084 1328.88 908.219L1327.66 907.816C1325.48 902.351 1329.68 890.84 1331.93 885.439C1337.48 872.203 1340.1 865.094 1353.41 859.177Z" fill="#5400FF"/>
<path d="M793.229 168.445L794.405 168.428C796.87 170.065 796.115 169.121 797.132 172.103C793.715 180.319 778.616 176.276 771.041 183.056C763.128 182.02 760.644 180.159 755.461 179.309L752.686 181.706C748.028 181.812 732.396 178.045 727.958 176.382C724.8 174.762 721.015 173.723 718.543 171.281C723.386 167.107 753.291 176.773 761.904 176.533C771.92 176.254 784.648 173.362 793.229 168.445Z" fill="#5400FF"/>
<path d="M1021.39 760.602C1027.09 766.143 1021.43 773.242 1017.29 779.646C1011.78 788.171 981.063 807.362 978.58 786.832C977.967 781.735 982.377 775.374 986.367 771.547C986.125 770.013 986.359 770.015 986.948 768.435C989.326 766.248 988.197 766.767 991.172 766.234L992.389 767.213C992.607 771.35 984.005 781.534 984.432 786.683C984.65 789.288 990.051 791.275 992.591 790.598C1002.11 788.057 1010.97 779.012 1015.94 770.795C1018.08 767.268 1018.11 764.77 1020.94 761.171L1021.39 760.602Z" fill="#5400FF"/>
<path d="M1347.11 283.548C1348.81 284.214 1349.22 284.83 1350.47 286.109C1351.67 289.166 1350.76 291.267 1350.4 294.423C1349.15 305.617 1344.35 317.327 1334.17 323.149C1327.98 326.69 1317.29 328.028 1313.7 320.22C1311.16 314.692 1313.36 308.217 1315.46 303.024C1317.36 299.684 1318.33 296.689 1322.46 296.595C1324.11 303.274 1306.59 328.706 1335.92 316.945C1345.4 304.093 1343.11 296.565 1347.11 283.548Z" fill="#5400FF"/>
<path d="M503.853 385.069C506.122 385.168 505.117 384.845 507.007 385.989C506.691 392.32 481.405 402.643 484.921 412.144C491.169 417.244 514.646 415.509 521.904 412.513C525.516 411.023 532.759 407.945 536.335 408.92L536.546 410.72C527.401 416.49 487.777 426.116 479.986 414.004C473.003 403.149 495.755 389.896 503.853 385.069Z" fill="#5400FF"/>
<path d="M1163.04 391.621C1164.17 392.468 1164.42 393.047 1165.16 394.224C1163.21 399.229 1148.87 405.889 1142.46 411.974C1162.28 412.465 1173.48 404.561 1188.12 403.565L1189.09 404.552C1187.99 407.734 1188.81 406.681 1186.04 408.537C1179.3 410.848 1136.25 423.814 1135.69 412.117C1139.81 403.531 1154.27 397.485 1163.04 391.621Z" fill="#5400FF"/>
<path d="M335.9 262.276C336.731 262.687 337.378 263.308 338.112 263.905C338.322 264.945 338.544 266.7 337.975 267.639C327.187 285.368 316.543 301.856 310.364 321.912C305.856 336.542 313.634 330.517 315.568 336.274L313.923 337.881C311.778 336.599 305.729 334.962 305.349 334.482C296.225 322.987 330.921 267.646 335.9 262.276Z" fill="#5400FF"/>
<path d="M420.756 385.744L422.775 385.865L423.587 387.581C421.964 389.898 409.707 395.664 405.883 397.844L405.862 399.219C409.89 402.024 421.863 401.008 427.362 400.89L427.89 401.362C429.563 402.885 431.458 404.523 431.23 406.874C430.007 419.537 408.239 419.144 400.209 419.068C398.154 418.218 398.236 418.279 396.63 416.746C397.613 414.729 399.004 415.567 402.203 415.385C414.906 414.66 418.319 414.649 427.549 406.29C423.419 406.204 419.29 406.086 415.162 405.934C410.005 405.722 403.345 405.298 399.668 401.317C397.53 393.911 415.104 387.191 420.756 385.744Z" fill="#5400FF"/>
<path d="M1163.14 735.568C1165.37 736.657 1164.59 736.03 1165.97 738.038C1164.83 742.191 1125.07 773.242 1127.93 788.145C1129.31 795.356 1133.06 796.411 1137.73 800.688L1137.76 802.177C1134.55 802.165 1132.99 801.811 1130.03 800.503C1114.06 793.446 1127.87 771.688 1135.26 762.752C1143.24 753.094 1152.83 743.454 1163.14 735.568Z" fill="#5400FF"/>
<path d="M283.764 575.757C285.396 575.854 285.605 576.085 287.059 576.782C287.72 578.182 288.263 578.814 287.756 580.445C282.768 596.497 263.958 610.126 247.123 606.072C241.243 600.518 248.125 591.007 251.546 585.905C253.923 583.482 256.692 579.995 260.255 580.296C262.181 584.482 251.341 592.504 250.572 599.416C252.405 603.159 259.579 600.809 262.715 599.474C275.561 594.009 278.892 588.052 283.764 575.757Z" fill="#5400FF"/>
<path d="M1062.18 389.568C1068.87 391.812 1059.74 405.671 1060.78 411.392C1062.11 418.666 1067.31 413.499 1071.77 417.759L1071.36 419.16C1070.78 419.51 1069.78 420.137 1069.09 420.246C1057.17 422.114 1056.49 421.23 1053.95 410.414C1049.49 412.982 1046.65 414.646 1041.83 416.616C1037.28 417.971 1033.54 418.507 1030.41 414.367C1029.54 407.401 1037.78 402.005 1041.7 405.887C1041.11 408.389 1039.69 407.642 1037.66 410.856L1038.47 411.794C1053.13 409.958 1055.48 401.694 1062.18 389.568Z" fill="#5400FF"/>
<path d="M1501.57 759.799C1505.88 764.219 1490.4 786.95 1486.35 790.497C1477.56 798.211 1470.96 798.151 1463.37 789.698C1464.92 784.412 1465.67 782.077 1468.09 776.964C1469.78 774.779 1470.81 773.734 1472.73 771.843C1475.48 771.123 1474.94 770.79 1476.98 771.698C1477.31 777.26 1467.79 784.406 1473.96 788.578C1477.42 789.176 1481.23 787.366 1484.62 786.134C1489.87 776.789 1494.69 768.071 1501.57 759.799Z" fill="#5400FF"/>
<path d="M558.264 567.215L559.869 567.813C560.12 570.533 554.221 579.702 552.829 586.624C560.823 585.675 580.664 581.988 587.425 585.797C584.466 587.51 562.643 589.139 553.823 592.174L552.997 592.463C550.103 597.54 550.849 601.132 549.428 606.939C547.591 608.943 547.243 609.534 544.637 610.116L543.518 609.308C545.028 605.244 546.986 599.751 546.566 595.444C544.899 594.02 538.586 594.148 535.562 593.881L534.997 592.857C537.563 591.21 537.203 591.018 540.436 591.747C554.046 583.105 545.053 579.676 558.264 567.215Z" fill="#5400FF"/>
<path d="M1367.8 750.642C1374.17 749.91 1383.87 753.136 1384.16 760.564C1374.03 767.523 1376.91 740.491 1348.47 774.286C1345.49 779.276 1347.72 784.527 1342.46 786.844C1336.53 782.05 1342.62 772.117 1345.69 767.362C1351.05 759.073 1357.94 752.686 1367.8 750.642Z" fill="#5400FF"/>
<path d="M1067.1 726.614C1070 727.546 1069.43 726.885 1070.88 728.944C1067.71 738.472 1065.43 748.128 1063.7 758.038C1062.62 764.211 1065.16 789.515 1060.92 791.682L1057.57 790.309C1054.52 777.95 1057.37 743.906 1064.32 733.133L1066.79 733.356L1067.26 732.28C1066.43 731.06 1066.19 730.535 1065.56 729.244L1067.1 726.614Z" fill="#5400FF"/>
<path d="M1067.49 583.365C1069.28 584.977 1069.48 584.67 1069.43 586.997C1066.19 590.728 1052.24 592.711 1043.42 598.242C1049.82 599.882 1058.87 601.267 1061.61 608.144C1060.68 615.569 1048.45 616.03 1042.5 616.087C1041.64 615.066 1041.53 614.554 1040.98 613.33L1041.7 611.766C1045.45 610.156 1052.22 609.715 1056.68 608.982C1051.29 606.277 1037.16 603.289 1038.23 595.435C1041.99 591.062 1056.8 587.193 1062.94 586.441C1064.18 586.29 1066.31 584.283 1067.49 583.365Z" fill="#5400FF"/>
<path d="M1287.67 589.247C1291.12 588.708 1292.37 589.43 1294.27 591.872L1293.94 589.812L1294.6 591.76L1295.03 591.615C1289.02 595.471 1279.07 596.965 1270.04 602.193C1277.66 603.858 1292.32 602.906 1296.73 609.926C1297.35 612.688 1296.95 613.194 1295.67 615.784L1292.62 616.444C1289.43 614.9 1289.48 613.875 1287.14 610.598C1280.06 609.528 1268.96 608.556 1263.85 603.912C1262.88 601.454 1262.89 602.519 1263.87 599.91C1268.92 594.829 1280.5 591.716 1287.67 589.247Z" fill="#5400FF"/>
<path d="M1215.27 286.984C1220.51 286.795 1228.11 289.057 1230.06 294.402C1229.61 296.957 1229.99 296.019 1227.97 298.066C1226.4 296.697 1224.13 294.681 1222.28 293.843C1220.68 293.122 1218.85 293.144 1217.27 293.902C1211.02 296.83 1204.21 313.677 1202.19 320.212C1200.73 324.109 1198.84 330.807 1195.55 332.836L1193.93 332.216C1190.3 327.051 1199.02 312.842 1201.31 307.018C1204.53 298.835 1208.07 292.268 1215.27 286.984Z" fill="#5400FF"/>
<path d="M162.283 468.54C164.643 469.256 163.83 468.688 165.457 470.533C163.312 482.788 146.836 499.548 144.687 512.71C144.355 514.746 145.881 515.817 147.124 517.051L147.102 518.24L143.77 520.254C140.628 520.856 139.449 521.345 137.218 519.074C133.385 506.294 157.433 480.148 162.117 468.945L162.283 468.54Z" fill="#5400FF"/>
<path d="M1032.73 869.809C1037.2 869.705 1041.31 870.712 1043.48 874.872C1040.65 881.369 1036.41 873.139 1029.67 877.62C1020.67 883.601 1013.63 899.892 1011.04 909.968C1010.33 912.185 1009.06 913.765 1007.08 914.934L1006.01 914.321C1002.52 901.819 1016.65 880.337 1026.43 872.961C1027.82 871.913 1031.03 870.543 1032.73 869.809Z" fill="#5400FF"/>
<path d="M1236.92 568.748C1238.6 568.852 1239.31 569.091 1240.89 569.519C1242.44 572.24 1240.06 577.408 1239.08 580.716C1236.2 590.468 1234.62 600.226 1233.05 610.233C1235.98 614.585 1236.87 615.207 1241.15 618.357L1241.18 620.687C1219.58 620.333 1228.36 598.025 1230.95 584.95C1232.01 579.631 1234.4 573.464 1236.92 568.748Z" fill="#5400FF"/>
<path d="M654.73 569.493L656.792 570.437L657.32 571.913C655.928 577.048 652.483 583.259 650.038 588.125C656.642 586.666 682.571 578.748 686.65 581.016C684.243 584.454 677.805 585.734 673.839 586.697C665.87 588.954 653.099 592.108 646.105 595.766C642.973 594.815 639.733 595.924 638.195 592.68C639.504 590.228 641.911 589.661 644.626 588.495C648.153 579.463 649.466 577.398 654.73 569.493Z" fill="#5400FF"/>
<path d="M642.605 360.808C644.813 362.171 644.315 361.426 645.081 363.55C643.555 368.051 639.894 378.45 639.284 382.868C638.398 389.275 643.029 409.604 639.384 414.79C638.998 414.551 636.776 413.118 636.675 412.881C630.474 398.268 630.189 372.122 642.605 360.808Z" fill="#5400FF"/>
<path d="M361.684 551.997L362.605 553.393C363.345 559.787 341.438 597.671 346.89 608.824C347.463 609.997 347.695 610.112 347.342 611.505L344.133 613.19C334.35 607.407 350.483 570.393 353.815 562.426C356.725 555.47 358.97 557.206 361.684 551.997Z" fill="#5400FF"/>
<path d="M505.428 582.819C508.185 583.584 508.068 583.054 509.391 584.857C507.796 587.885 493.72 593.11 488.802 595.771C494.725 597.87 510.575 597.551 509.266 605.552C506.356 609.778 500.042 613.052 495.44 615.056C493.576 614.984 493.604 614.835 492.147 613.757C492.677 609.568 499.813 608.233 503.377 604.38C499.887 601.078 484.298 602.607 482.66 595.769C484.794 591.548 500.52 585.125 505.428 582.819Z" fill="#5400FF"/>
<path d="M701.597 580.582C702.893 580.879 703.567 581.177 704.796 581.637C715.686 593.63 697.201 613.26 682.348 609.087C671.145 605.94 671.735 599.617 677.3 591.82C684.505 588.962 679.959 587.81 685.385 586.099L686.436 586.792C686.052 590.18 679.947 592.725 678.942 599.161C680.84 605.859 689.786 604.111 695.54 603.932L702.345 597.103C702.23 591.699 700.863 585.664 701.597 580.582Z" fill="#5400FF"/>
<path d="M1215.29 571.024L1216.46 571.151L1216.84 572.584C1213.26 580.201 1207.59 596.698 1209.26 605.372C1210.16 610.028 1216.06 609.511 1219.4 611.528C1218.54 613.872 1217.73 613.773 1215.25 615.36C1206.19 614.778 1204.78 611.604 1201.74 603.817C1203.05 595.707 1204.58 582.905 1209.03 575.904C1211.03 572.737 1213.11 575.641 1215.29 571.024Z" fill="#5400FF"/>
<path d="M837.262 373.418C844.654 375.249 834.932 390.706 834.569 397.692C834.005 408.83 845.694 412.677 847.581 417.623C843.59 418.346 841.583 417.609 838.399 415.266C829.346 409.504 830.24 405.701 829.072 395.769C826.782 397.182 822.646 400.118 820.244 400.275C830.442 390.39 830.402 385.207 837.262 373.418Z" fill="#5400FF"/>
<path d="M1323.62 763.522C1326.3 764.673 1325.5 763.944 1326.95 766.129C1327.06 791.841 1289.55 796.339 1299.08 772.638C1301.51 769.529 1302.13 768.276 1305.95 768.199C1310.39 771.608 1302.55 776.5 1304.09 782.622C1306.94 784.102 1313.02 781.848 1315.79 780.622C1320.66 778.466 1322.07 768.587 1323.62 763.522Z" fill="#5400FF"/>
<path d="M855.255 574.391L856.964 575.524C859.399 581.244 849.088 586.858 847.903 595.588C850.668 603.761 863.398 597.424 868.339 600.598C867.009 602.75 864.937 603.229 862.495 604.248C859.738 604.824 858.948 605.037 856.062 604.923C851.418 602.047 850.58 601.225 845.654 601.973L843.889 600.523L843.921 597.769C842.075 596.428 841.003 595.959 840.253 593.881C841.962 587.803 850.523 578.844 855.255 574.391Z" fill="#5400FF"/>
<path d="M950.429 445.413C955.451 444.958 969.817 443.635 973.437 447.15L972.727 448.557C965.867 452.076 956.532 451.139 948.72 450.985C942.625 451.469 935.491 451.619 929.437 450.722C927.825 449.06 928.228 449.929 928.099 447.439C931.38 444.733 943.891 446.264 949.712 445.51L950.429 445.413Z" fill="#5400FF"/>
<path d="M63.9795 380.535C65.4333 380.762 65.9191 381.164 67.1654 381.896C71.2783 388.571 60.4453 405.065 59.6316 412.625C59.3006 415.7 58.0625 416.583 55.8743 418.679C54.8078 419.027 54.594 418.813 53.3342 418.614L52.2925 416.885C51.7617 410.988 61.4331 388.212 63.9795 380.535Z" fill="#5400FF"/>
<path d="M869.951 311.649C870.628 311.807 871.636 312.235 872.321 312.496C872.547 318.145 853.562 339.33 853.86 344.075C855.206 345.016 855.561 345.173 856.553 346.551L855.11 347.692C852.901 348.31 851.917 348.794 849.7 348.351C843.961 341.472 864.638 316.458 869.951 311.649Z" fill="#5400FF"/>
<path d="M1057.1 869.326C1065.15 874.178 1047.51 895.185 1050.91 903.439C1052.23 906.639 1051.99 906.994 1050.19 909.864C1048.13 909.203 1048.02 909.065 1046.29 907.703C1042.37 901.319 1051.88 874.154 1057.1 869.326Z" fill="#5400FF"/>
<path d="M854.441 892.565C855.48 893.137 857.657 894.903 857.931 895.902C859.68 902.407 851.305 924.091 848.209 929.943C840.083 929.733 852.852 897.829 854.441 892.565Z" fill="#5400FF"/>
<path d="M356.764 301.23L357.825 302.685C356.793 308.397 345.56 321.404 345.332 329.68C345.187 334.95 345.856 330.833 347.861 334.336L344.82 337.003C341.344 336.728 342.343 337.295 340.409 335.324C337.13 325.373 348.493 306.888 356.764 301.23Z" fill="#5400FF"/>
<path d="M311.432 574.439C311.762 574.754 312.572 576.136 312.51 576.332C311.016 581.087 306.43 596.168 305.457 600.14C306.214 601.567 306.503 602.237 307.098 603.747C306.255 605.712 304.095 606.544 302.1 607.685C294.463 601.086 306.268 577.714 311.432 574.439Z" fill="#5400FF"/>
<path d="M1204.77 394.643C1206.25 395.49 1206.5 396.079 1207.45 397.456C1208.53 406.186 1201.47 411.754 1206.65 418.352C1205.9 421.048 1204.17 422.175 1202.04 424.108L1199.31 423.591C1198.47 422.452 1198.02 421.822 1197.95 419.923C1197.64 412.17 1201.21 405.077 1202.17 397.499C1203.25 396.313 1204.12 395.36 1204.77 394.643Z" fill="#5400FF"/>
<path d="M229.258 592.102C231.499 592.443 231.738 592.366 233.368 593.797C233.266 601.716 214.109 609.062 207.55 610.437C205.599 610.219 205.677 610.161 203.966 609.107C203.483 604.788 222.394 601.605 229.258 592.102Z" fill="#5400FF"/>
<path d="M875.941 588.269C876.288 584.995 876.691 581.682 879.593 579.716C883.656 583.538 881.407 595.165 884.978 598.567C885.285 599.929 885.438 601.118 885.631 602.49C884.567 604.75 884.414 605.023 882.326 606.372C875.554 605.716 875.982 593.331 875.941 588.269Z" fill="#5400FF"/>
<path d="M896.619 445.133C902.028 444.99 923.117 443.1 925.302 448.584C923.891 450.694 924.616 450.004 922.045 451.022C916.353 451.074 897.07 452.738 894.644 447.256L896.619 445.133Z" fill="#5400FF"/>
<path d="M546.892 395.49C547.83 396.301 548.072 396.816 548.783 397.831C550.123 406.319 541.647 409.654 546.906 417.699L547.377 418.412C546.445 420.003 544.124 420.522 542.063 421.414C541.043 420.535 540.032 419.61 539.31 418.478C536.003 413.289 542.363 397.834 546.892 395.49Z" fill="#5400FF"/>
<path d="M967.73 796.477C969.544 796.203 970.213 795.933 971.93 796.623L971.914 798.055C968.028 801.759 954.719 806.026 949.213 806.028C945.383 804.449 944.513 804.626 942.489 801.617C944.36 798.512 954.34 799.7 958.121 798.937C961.394 798.276 964.53 797.379 967.73 796.477Z" fill="#5400FF"/>
<path d="M835.513 585.063L837.06 585.816L837.004 587.319C834.263 590.617 826.105 595.706 822.114 598.746C822.106 600.298 822.155 601.664 822.227 603.215L819.696 605.953C817.398 604.905 817.302 604.59 815.641 602.583C814.351 594.097 829.104 588.375 835.513 585.063Z" fill="#5400FF"/>
<path d="M651.396 492.368C653.328 493.828 655.076 496 654.489 498.449C653.02 504.577 654.173 511.306 649.428 515.499C648.809 515.06 647.483 513.78 646.854 513.207C644.473 507.791 646.777 496.471 651.396 492.368Z" fill="#5400FF"/>
<path d="M1282.05 615.312L1282.72 615.412C1284.64 617.222 1284.42 616.486 1284.81 618.652C1281.56 621.884 1266.76 622.006 1261.74 622.173C1259.8 621.507 1259 621.063 1258.43 619.288C1261.5 615.46 1274.17 617.693 1281.26 615.555L1282.05 615.312Z" fill="#5400FF"/>
<path d="M955.976 401.536L958.548 402.295C961.668 406.739 959.12 421.195 955.928 425.19C954.767 425.075 954.098 424.701 953.018 424.25C950.905 419.403 954.477 406.953 955.976 401.536Z" fill="#5400FF"/>
<path d="M1372.48 405.53C1373.8 405.442 1374.48 405.94 1375.67 406.528L1376.04 408.258C1375 410.974 1372.15 413.43 1370.04 415.555C1367.14 415.935 1364.76 416.825 1361.99 417.733L1360.41 417.734L1359.28 416.349C1360.41 408.987 1366.86 408.401 1372.48 405.53Z" fill="#5400FF"/>
<path d="M862.462 876.903C865.687 876.581 879.569 882.658 882.205 884.424L882.39 885.923C876.102 886.141 861.922 885.996 862.462 876.903Z" fill="#5400FF"/>
<path d="M1174.34 591.338C1176.31 592.742 1175.56 591.862 1176.57 594.139C1176.2 597.084 1175.43 605.362 1174.51 607.579L1172.26 608.199C1164.4 601.236 1169.81 597.826 1174.34 591.338Z" fill="#5400FF"/>
<path d="M1501.45 259.443L1502.08 259.599C1507.38 261.051 1512.91 267.087 1510.1 272.878C1507.05 270.848 1499.87 264.731 1499.89 260.933L1501.45 259.443Z" fill="#5400FF"/>
<path d="M925.737 538.884L927.454 540.334C928.091 548.236 933.67 548.631 932.178 554.947C925.745 552.509 921.698 545.206 925.737 538.884Z" fill="#5400FF"/>
<path d="M669.596 472.85C672.909 474.519 672.558 479.12 671.755 482.222L670.413 482.542C668.201 480.752 667.161 481.069 665.481 478.304C666.132 475.708 667.495 475.027 669.596 472.85Z" fill="#5400FF"/>
<path d="M1211.11 369.797L1212.22 370.988C1212.19 375.983 1217.48 378.47 1216.67 383.325C1209.13 381.245 1208.66 376.327 1211.11 369.797Z" fill="#5400FF"/>
<path d="M1185.04 860.499C1188.24 861.055 1188.78 861.216 1191.16 863.417C1192.11 866.287 1192.17 865.126 1191.06 867.778C1188.14 867.399 1185.66 867.447 1183.47 865.65C1183.11 862.941 1183.54 863.232 1185.04 860.499Z" fill="#5400FF"/>
<path d="M322.527 555.895C326.414 555.899 326.82 555.642 329.161 557.944C329.688 560.462 329.876 560.965 329.256 563.432C327.253 564.087 327.354 564.034 325.272 563.54C323.049 561.499 323.066 559.025 322.527 555.895Z" fill="#5400FF"/>
<path d="M969.213 905.946C971.631 906.196 973.348 906.172 975.501 907.284C976.323 910.017 976.057 909.178 975.138 912.386C972.591 913.692 973.437 913.741 971.115 913.297C969.293 911.25 969.471 908.832 969.213 905.946Z" fill="#5400FF"/>
<path d="M534.513 494.325C537.408 494.962 538.013 495.25 539.319 497.734C538.624 500.502 538.803 499.664 536.386 501.958C533.919 500.949 533.379 500.908 531.641 499.012C531.789 496.2 532.096 496.736 534.513 494.325Z" fill="#5400FF"/>
<path d="M444.755 502.361C450.502 501.613 452.147 501.336 455.123 506.432C452.666 507.008 451.922 506.967 449.384 506.931C446.803 506.016 446.22 504.625 444.755 502.361Z" fill="#5400FF"/>
<path d="M1063.97 851.487C1065.27 851.793 1066.15 852.301 1067.34 852.881C1069.45 855.082 1069.55 857.008 1070.1 859.967C1067.6 860.136 1067.24 860.184 1065.18 858.798C1063.66 856.323 1063.97 854.445 1063.97 851.487Z" fill="#5400FF"/>
<path d="M1313.02 760.761C1315.8 760.835 1316.31 760.646 1318.52 762.111C1318.44 764.42 1318.57 763.615 1316.33 765.762C1313.85 765.936 1312.49 766.315 1310.38 765.093C1310.46 762.661 1310.96 762.919 1313.02 760.761Z" fill="#5400FF"/>
<path d="M1295.21 586.072C1297.82 585.909 1299.09 585.7 1301.68 586.404C1303.3 588.648 1302.82 587.816 1302.93 591.017C1300.64 591.13 1299.83 591.031 1297.56 590.71C1295.45 588.741 1296.14 589.485 1295.21 586.072Z" fill="#5400FF"/>
</svg>
