<svg width="800" height="165" viewBox="0 0 800 165" fill="none" xmlns="http://www.w3.org/2000/svg">
<g clip-path="url(#clip0_5632_4917)">
<path d="M69.8869 121.39C70.2721 121.52 70.1196 121.444 70.4359 121.631C72.9754 123.133 75.9726 124.122 78.7805 124.996C78.1842 125.788 76.6159 127.322 75.7791 128.333C71.6303 133.338 69.7596 137.013 67.354 142.873C67.2843 143.007 67.0498 143.262 66.9418 143.39C66.4216 143.613 66.1602 143.668 65.6116 143.488C59.9728 141.63 58.8418 134.293 60.7368 129.427C62.4422 125.05 65.8434 123.167 69.8869 121.39Z" fill="#5400FF"/>
<path d="M153.357 121.53C154.649 121.341 157.834 123.412 158.976 124.297C163.985 128.175 165.656 135.705 161.539 140.846C160.834 141.725 158.868 143.568 157.617 143.583C157.097 143.589 156.886 143.383 156.549 143.04C155.938 141.835 155.478 140.279 154.82 138.993C151.921 133.322 149.513 129.276 144.771 125.069C147.767 124.147 150.716 123.234 153.357 121.53Z" fill="#5400FF"/>
<path d="M168.163 112.457C173.851 112.949 179.05 114.203 183.211 118.281C188.163 123.133 189.203 130.712 184.038 135.836C183.117 136.751 182.061 137.608 181.177 136.157C180.736 135.411 179.602 134.014 179.028 133.204C174.498 126.826 167.646 120.492 159.976 118.302C162.297 117.287 163.864 115.987 165.823 114.386C166.742 113.637 167.089 113.096 168.163 112.457Z" fill="#5400FF"/>
<path d="M55.8769 112.642C56.4339 113.029 57.5759 114.145 58.2075 114.671C60.1839 116.316 61.5839 117.123 63.8599 118.265C56.4038 120.56 50.371 125.641 45.7263 131.803C45.1138 132.617 44.7314 133.323 44.0476 134.116L43.9108 134.274C43.2713 134.867 42.9149 136.139 41.9868 136.794C41.2654 136.825 40.5554 136.698 40.0346 136.183C32.7595 129.006 37.2842 118.423 45.7394 114.726C48.6569 113.451 49.6915 113.072 52.8774 112.702C53.9002 112.581 54.8517 112.624 55.8769 112.642Z" fill="#5400FF"/>
<path d="M278.842 69.3831C284.69 69.3831 289.716 70.4134 293.917 72.4725C298.117 74.5316 301.493 77.3731 304.047 80.9969C306.682 84.5384 308.412 88.5738 309.236 93.1035L294.162 96.3166C293.832 93.8457 293.091 91.6217 291.938 89.645C290.785 87.6686 289.139 86.103 286.998 84.95C284.939 83.7969 282.343 83.2208 279.213 83.2208C276.084 83.2208 273.242 83.9209 270.689 85.321C268.218 86.6387 266.242 88.6566 264.759 91.3743C263.359 94.0099 262.659 97.2641 262.659 101.135V102.37C262.659 106.241 263.359 109.536 264.759 112.254C266.242 114.89 268.218 116.908 270.689 118.308C273.242 119.625 276.084 120.284 279.213 120.284C283.908 120.284 287.449 119.09 289.838 116.702C292.309 114.231 293.874 111.018 294.533 107.065L309.605 110.649C308.534 115.014 306.682 119.008 304.047 122.632C301.493 126.173 298.117 128.973 293.917 131.033C289.716 133.092 284.69 134.122 278.842 134.122C272.913 134.122 267.518 132.887 262.659 130.416C257.882 127.945 254.093 124.361 251.292 119.666C248.492 114.971 247.092 109.288 247.092 102.617V100.888C247.092 94.2166 248.492 88.5337 251.292 83.839C254.093 79.1443 257.882 75.5617 262.659 73.0908C267.518 70.62 272.912 69.3832 278.842 69.3831Z" fill="#5400FF"/>
<path fill-rule="evenodd" clip-rule="evenodd" d="M380.714 69.3831C388.786 69.3831 395.17 71.4024 399.865 75.4383C404.559 79.4741 406.907 85.3223 406.907 92.9817V115.837C406.907 118.307 408.06 119.544 410.366 119.544H415.308V132.393H404.929C401.882 132.393 399.37 131.651 397.394 130.169C395.417 128.686 394.428 126.708 394.428 124.237V124.114H392.08C391.751 125.102 391.01 126.421 389.857 128.069C388.704 129.633 386.892 131.034 384.422 132.269C381.951 133.505 378.573 134.122 374.29 134.122C369.925 134.122 366.013 133.38 362.554 131.898C359.095 130.333 356.334 128.109 354.275 125.227C352.299 122.262 351.311 118.679 351.311 114.478C351.311 110.278 352.299 106.778 354.275 103.977C356.334 101.095 359.136 98.9514 362.678 97.5512C366.302 96.0689 370.42 95.3273 375.032 95.3273H391.833V91.8689C391.833 88.9863 390.928 86.6383 389.117 84.8264C387.305 82.932 384.42 81.9861 380.467 81.9861C376.596 81.9863 373.713 82.8909 371.819 84.7027C369.924 86.4323 368.689 88.6978 368.113 91.4979L353.782 86.6793C354.771 83.5498 356.334 80.7078 358.475 78.1548C360.699 75.5193 363.624 73.4191 367.247 71.8542C370.953 70.207 375.443 69.3832 380.714 69.3831ZM376.143 106.941C373.261 106.941 370.996 107.559 369.349 108.794C367.702 110.03 366.878 111.76 366.878 113.984C366.878 116.207 367.742 118.02 369.471 119.421C371.201 120.821 373.714 121.521 377.008 121.521C381.373 121.521 384.915 120.325 387.633 117.937C390.433 115.466 391.833 112.213 391.833 108.178V106.941H376.143Z" fill="#5400FF"/>
<path fill-rule="evenodd" clip-rule="evenodd" d="M624.912 69.3831C632.983 69.3831 639.366 71.4025 644.061 75.4383C648.755 79.4741 651.103 85.322 651.103 92.9817V115.837C651.103 118.307 652.256 119.544 654.562 119.544H659.504V132.393H649.127C646.079 132.393 643.566 131.651 641.59 130.169C639.613 128.686 638.626 126.708 638.626 124.237V124.114H636.278C635.949 125.102 635.207 126.421 634.054 128.069C632.901 129.634 631.088 131.034 628.617 132.269C626.147 133.504 622.77 134.122 618.487 134.122C614.122 134.122 610.209 133.381 606.75 131.898C603.291 130.333 600.532 128.109 598.473 125.227C596.496 122.262 595.507 118.679 595.507 114.478C595.507 110.278 596.496 106.778 598.473 103.977C600.532 101.095 603.332 98.9514 606.874 97.5512C610.497 96.0688 614.616 95.3274 619.227 95.3273H636.031V91.8689C636.031 88.9862 635.124 86.6384 633.312 84.8264C631.5 82.9322 628.618 81.9862 624.664 81.9861C620.794 81.9861 617.911 82.891 616.016 84.7027C614.122 86.4322 612.887 88.6978 612.311 91.4979L597.978 86.6793C598.967 83.5497 600.532 80.7079 602.673 78.1548C604.897 75.5193 607.821 73.4191 611.445 71.8542C615.151 70.207 619.64 69.3831 624.912 69.3831ZM620.34 106.941C617.458 106.941 615.192 107.559 613.545 108.794C611.898 110.03 611.074 111.76 611.074 113.984C611.074 116.208 611.939 118.02 613.669 119.421C615.398 120.821 617.912 121.521 621.206 121.521C625.571 121.521 629.113 120.325 631.831 117.937C634.63 115.466 636.031 112.213 636.031 108.178V106.941H620.34Z" fill="#5400FF"/>
<path fill-rule="evenodd" clip-rule="evenodd" d="M731.205 132.393H715.885V124.979H713.661C712.261 127.285 710.078 129.386 707.113 131.28C704.231 133.174 699.989 134.122 694.389 134.122C689.529 134.122 684.957 132.928 680.675 130.54C676.474 128.069 673.098 124.484 670.545 119.79C667.991 115.095 666.715 109.412 666.715 102.741V100.764C666.715 94.0929 667.991 88.4101 670.545 83.7154C673.098 79.0209 676.474 75.4793 680.675 73.0908C684.875 70.6199 689.447 69.3831 694.389 69.3831C698.095 69.3831 701.184 69.8373 703.655 70.7433C706.208 71.5668 708.267 72.6368 709.832 73.9544C711.397 75.272 712.59 76.6726 713.414 78.1548H715.638V45.91H731.205V132.393ZM699.084 82.9735C694.306 82.9735 690.311 84.5386 687.099 87.6685C683.887 90.7159 682.282 95.2052 682.282 101.135V102.37C682.282 108.3 683.887 112.83 687.099 115.96C690.311 119.008 694.306 120.532 699.084 120.532C703.861 120.532 707.856 119.008 711.068 115.96C714.28 112.83 715.885 108.3 715.885 102.37V101.135C715.885 95.2053 714.28 90.7159 711.068 87.6685C707.939 84.5386 703.943 82.9735 699.084 82.9735Z" fill="#5400FF"/>
<path d="M771.444 69.3831C778.28 69.3831 783.963 70.9072 788.493 73.9544C793.023 77.0019 795.988 80.9974 797.388 85.9392L782.934 90.3869C782.275 87.2574 780.916 85.0333 778.857 83.7154C776.881 82.3976 774.409 81.7388 771.444 81.7388C768.479 81.7389 766.214 82.2737 764.649 83.3444C763.084 84.3328 762.301 85.7329 762.301 87.5448C762.301 89.5215 763.125 91.0041 764.772 91.9925C766.42 92.8985 768.644 93.5985 771.444 94.0927L774.904 94.711C779.516 95.5346 783.676 96.6457 787.382 98.0458C791.17 99.3636 794.136 101.3 796.277 103.854C798.501 106.325 799.612 109.701 799.612 113.984C799.612 120.408 797.266 125.391 792.571 128.932C787.959 132.392 781.74 134.122 773.915 134.122C765.926 134.122 759.378 132.392 754.271 128.932C749.165 125.473 746.076 120.532 745.005 114.107L759.337 110.402C759.914 113.284 760.86 115.55 762.178 117.197C763.578 118.844 765.267 120.038 767.243 120.779C769.303 121.438 771.526 121.768 773.915 121.768C777.539 121.768 780.215 121.149 781.945 119.913C783.674 118.596 784.539 116.991 784.54 115.097C784.54 113.202 783.716 111.759 782.068 110.771C780.421 109.7 777.786 108.836 774.162 108.178L770.702 107.559C766.419 106.736 762.508 105.623 758.966 104.223C755.425 102.74 752.583 100.723 750.442 98.1694C748.301 95.6163 747.229 92.3223 747.229 88.2867C747.229 82.1918 749.453 77.5376 753.9 74.3254C758.348 71.0309 764.196 69.3831 771.444 69.3831Z" fill="#5400FF"/>
<path d="M338.013 132.393H322.448V45.91H338.013V132.393Z" fill="#5400FF"/>
<path d="M443.62 121.89H445.844L453.752 71.1123H478.707L486.615 121.89H488.839L494.274 71.1123H509.718L501.07 132.393H475.249L467.341 81.6152H465.117L457.211 132.393H431.39L422.742 71.1123H438.185L443.62 121.89Z" fill="#5400FF"/>
<path d="M558.788 70.125C563.565 70.125 567.724 71.2363 571.266 73.4598C574.89 75.6012 577.69 78.6081 579.667 82.4789C581.643 86.2675 582.632 90.7156 582.632 95.8219V132.393H567.065V97.0585C567.065 92.4461 565.913 88.9855 563.607 86.6793C561.383 84.3731 558.17 83.2208 553.97 83.2208C549.193 83.2208 545.486 84.8273 542.85 88.0394C540.215 91.1692 538.897 95.5759 538.897 101.259V132.393H523.33V71.1123H538.65V79.144H540.874C541.862 77.0028 543.715 74.9849 546.433 73.0908C549.151 71.114 553.27 70.125 558.788 70.125Z" fill="#5400FF"/>
<path d="M112.886 69.4112C120.561 69.3114 130.75 70.8561 138.148 73.1114C147.771 76.4151 157.637 81.114 165.145 88.075C172.078 94.5044 174.885 97.8186 167.373 105.279C157.283 115.296 144.333 119.884 130.661 122.591C124.353 123.84 117.277 123.937 110.917 123.924C101.063 123.891 91.8617 122.844 82.4225 120.014C71.362 116.698 56.0089 109.18 51.729 97.8322C52.4448 94.1499 55.2496 91.0878 57.994 88.5059C65.5708 81.3779 75.5521 76.3585 85.3789 73.1432C88.3218 72.117 91.6115 71.8125 94.5741 71.0543C100.871 69.4423 106.458 69.4071 112.886 69.4112Z" fill="#5400FF"/>
<path d="M195.005 20.8145C206.463 21.8457 218.609 31.2089 222.075 42.1499C222.754 44.2925 223.954 49.2127 223.926 51.4518C223.675 71.7932 205.273 85.6116 186.582 88.4928C179.539 89.5783 177.622 90.3161 171.433 87.069C170.65 86.4964 170 86.0409 169.619 85.1542C169.762 84.2474 171.155 83.6255 172.04 83.1664C175.549 81.3402 177.779 77.7 180.468 75.4139C178.699 73.5682 177.796 71.7911 176.551 69.5873C170.348 58.6002 171.034 41.6468 180.551 32.5482C182.426 38.2961 188.206 49.4932 193.373 52.7052C194.674 52.3316 195.552 48.3171 195.788 47.0828C197.437 38.4521 196.789 29.3704 195.005 20.8145Z" fill="#5400FF"/>
<path d="M28.1584 20.865C28.3808 20.8567 28.4465 20.9089 28.6755 20.9812C28.6874 21.05 27.9636 25.6224 27.8212 26.2101C26.7242 30.738 26.8213 50.6795 30.4123 52.664C31.2014 52.226 32.2327 51.1027 32.8609 50.4195C37.7462 45.1066 40.7473 39.2496 43.2832 32.6231C45.0935 34.7148 47.0697 37.4067 48.2892 39.8848C53.7921 51.0672 51.4654 66.491 42.9741 75.5525C45.1538 77.3389 47.0032 80.2536 49.5051 82.0386C50.6741 82.8717 53.5027 84.2071 53.8479 85.025C53.6938 85.6884 53.3288 85.9865 52.8718 86.5032C46.7889 90.5143 44.1249 89.4932 37.4454 88.5415C23.1986 86.5117 8.08979 77.4225 2.4053 63.742C-5.71197 44.2061 7.67659 23.7304 28.1584 20.865Z" fill="#5400FF"/>
<path fill-rule="evenodd" clip-rule="evenodd" d="M139.203 40.0759C145.814 39.1614 151.922 43.758 152.874 50.3633C153.825 56.9691 149.262 63.104 142.661 64.0923C136.009 65.0882 129.816 60.4813 128.857 53.8237C127.898 47.1658 132.539 40.9982 139.203 40.0759ZM140.919 45.91C137.721 45.9102 135.128 48.5028 135.128 51.701C135.128 54.8993 137.721 57.4918 140.919 57.492C144.117 57.492 146.71 54.8994 146.71 51.701C146.71 48.5027 144.117 45.91 140.919 45.91Z" fill="#5400FF"/>
<path fill-rule="evenodd" clip-rule="evenodd" d="M81.0343 40.1209C87.6607 39.0402 93.9053 43.5498 94.9638 50.1797C96.0216 56.8098 91.4916 63.0378 84.8581 64.0736C78.2566 65.1036 72.0641 60.5996 71.011 54.0017C69.9586 47.4042 74.4407 41.1972 81.0343 40.1209ZM83.0071 45.91C79.8094 45.9103 77.2168 48.5034 77.2161 51.701C77.2161 54.8992 79.809 57.4935 83.0071 57.4939C86.2051 57.4934 88.7981 54.8991 88.7981 51.701C88.7973 48.5035 86.2046 45.9104 83.0071 45.91Z" fill="#5400FF"/>
</g>
<defs>
<clipPath id="clip0_5632_4917">
<rect width="800" height="122.782" fill="white" transform="translate(0 20.8145)"/>
</clipPath>
</defs>
</svg>
