<svg width="800" height="800" viewBox="0 0 800 800" fill="none" xmlns="http://www.w3.org/2000/svg">
<g clip-path="url(#clip0_5442_4889)">
<rect width="800" height="800" fill="#009393"/>
<path d="M400 800C620.914 800 800 620.914 800 400C800 179.086 620.914 0 400 0C179.086 0 0 179.086 0 400C0 620.914 179.086 800 400 800Z" fill="#009393"/>
<path fill-rule="evenodd" clip-rule="evenodd" d="M400.49 428.59C469.28 428.59 526.77 416.96 540.82 401.42C528.89 388.24 485.74 377.86 430.94 375.02V407.85C421.13 408.36 410.93 408.61 400.48 408.61C390.03 408.61 379.83 408.36 370 407.85V375.02C315.22 377.86 272.05 388.24 260.12 401.42C274.19 416.96 331.69 428.59 400.48 428.59H400.49ZM522.71 274.06V319.27H430.94V350.62C495.4 353.97 543.77 367.75 544.13 384.24V418.62C543.77 435.11 495.4 448.86 430.94 452.22V529.16H370.01V452.22C305.55 448.87 257.2 435.11 256.84 418.62V384.24C257.2 367.75 305.55 353.97 370.01 350.62V319.27H278.24V274.06H522.72H522.71ZM242.15 202.11H564.31C572.01 202.11 579.1 206.16 582.94 212.74L676.79 373.9C681.65 382.26 680.21 392.81 673.27 399.58L414.93 651.76C406.55 659.93 393.09 659.93 384.73 651.76L126.71 399.92C119.62 392.98 118.28 382.13 123.51 373.73L223.84 212.24C227.75 205.96 234.69 202.12 242.16 202.12L242.15 202.11Z" fill="white"/>
</g>
<defs>
<clipPath id="clip0_5442_4889">
<rect width="800" height="800" fill="white"/>
</clipPath>
</defs>
</svg>
